SplineFontDB: 3.2
FontName: RallyDisplay-ExtraBold
FullName: Rally Display ExtraBold
FamilyName: Rally Display
Weight: Extra-Bold
Copyright: Copyright (c) 2023-2024, Zamero Type Foundry
UComments: "2023-12-31: Created with FontForge (http://fontforge.org)"
Version: 001.000
ItalicAngle: 0
UnderlinePosition: -100
UnderlineWidth: 50
Ascent: 800
Descent: 200
InvalidEm: 0
LayerCount: 2
Layer: 0 0 "Back" 1
Layer: 1 0 "Fore" 0
XUID: [1021 474 1118879153 10182]
StyleMap: 0x0000
FSType: 0
OS2Version: 0
OS2_WeightWidthSlopeOnly: 0
OS2_UseTypoMetrics: 1
CreationTime: 1704051534
ModificationTime: 1705104498
PfmFamily: 81
TTFWeight: 800
TTFWidth: 5
LineGap: 90
VLineGap: 90
OS2TypoAscent: 0
OS2TypoAOffset: 1
OS2TypoDescent: 0
OS2TypoDOffset: 1
OS2TypoLinegap: 90
OS2WinAscent: 0
OS2WinAOffset: 1
OS2WinDescent: 0
OS2WinDOffset: 1
HheadAscent: 0
HheadAOffset: 1
HheadDescent: 0
HheadDOffset: 1
OS2Vendor: 'PfEd'
Lookup: 258 0 0 "'kern' Horizontal Kerning in Latin lookup 0" { "'kern' Horizontal Kerning in Latin lookup 0-1" [100,15,2] } ['kern' ('DFLT' <'dflt' > 'latn' <'dflt' > ) ]
MarkAttachClasses: 1
DEI: 91125
LangName: 1033
Encoding: UnicodeBmp
UnicodeInterp: none
NameList: AGL For New Fonts
DisplaySize: -48
AntiAlias: 1
FitToEm: 0
WinInfo: 27 27 9
BeginPrivate: 0
EndPrivate
Grid
-1000 765.001953125 m 4
 2000 765.001953125 l 1028
  Named: "Ascender Height"
-1000 506.93359375 m 0
 2000 506.93359375 l 1024
  Named: "X-Height Overshoot"
-1000 497.010742188 m 0
 2000 497.010742188 l 1024
  Named: "X-Height"
-1000 -173.994140625 m 0
 2000 -173.994140625 l 1024
  Named: "Descender Height"
-1000 -9.998046875 m 0
 2000 -9.998046875 l 1024
  Named: "Bottom Overshoot"
-1000 738.9921875 m 0
 2000 738.9921875 l 1024
  Named: "Overshoot Cap Height"
-1000 731.0078125 m 0
 2000 731.0078125 l 1024
  Named: "Cap Height"
EndSplineSet
BeginChars: 65539 127

StartChar: dotlessi
Encoding: 305 305 1
Width: 330
Flags: W
HStem: 0 21G<103.83 300.159> 346.084 150.927<13.6201 108.151>
VStem: 103.83 196.329<0 346.084>
LayerCount: 2
Back
SplineSet
294.729492188 496.93359375 m 5
 300.159179688 0 l 5
 103.830078125 0 l 5
 110 496.93359375 l 5
 294.729492188 496.93359375 l 5
EndSplineSet
Fore
SplineSet
294.729492188 497.010742188 m 1
 300.159179688 0 l 1
 103.830078125 0 l 1
 108.151367188 346.083984375 l 1
 10 344.080078125 l 1
 13.6201171875 497.010742188 l 1
 294.729492188 497.010742188 l 1
EndSplineSet
Validated: 1
EndChar

StartChar: period
Encoding: 46 46 2
Width: 280
Flags: W
HStem: -10 220<69.35 210.65>
VStem: 30 220<29.35 170.65>
LayerCount: 2
Fore
SplineSet
30 100 m 4
 30 167.22265625 72.77734375 210 140 210 c 4
 207.22265625 210 250 167.22265625 250 100 c 4
 250 32.77734375 207.22265625 -10 140 -10 c 4
 72.77734375 -10 30 32.77734375 30 100 c 4
EndSplineSet
Validated: 1
EndChar

StartChar: o
Encoding: 111 111 3
Width: 555
Flags: W
HStem: -10.0664 164.925<220.912 333.544> 342.009 164.925<220.912 333.544>
VStem: 20 174.375<184.303 314.108> 360.625 174.375<184.303 314.108>
LayerCount: 2
Fore
SplineSet
194.375 249.858398438 m 4
 194.375 191.802734375 226.516601562 154.858398438 277.025390625 154.858398438 c 4
 328.114257812 154.858398438 360.625 191.802734375 360.625 249.858398438 c 4
 360.625 306.172851562 328.114257812 342.008789062 277.025390625 342.008789062 c 4
 226.516601562 342.008789062 194.375 306.172851562 194.375 249.858398438 c 4
20 249.93359375 m 0
 20 406.989257812 119.944335938 506.93359375 277 506.93359375 c 0
 434.666992188 506.93359375 535 406.989257812 535 249.93359375 c 0
 535 91.0439453125 434.666992188 -10.06640625 277 -10.06640625 c 0
 119.944335938 -10.06640625 20 91.0439453125 20 249.93359375 c 0
EndSplineSet
Validated: 1
EndChar

StartChar: slash
Encoding: 47 47 4
Width: 507
Flags: W
LayerCount: 2
Fore
SplineSet
1 -143.994140625 m 1
 317 795.001953125 l 5
 506 743.001953125 l 5
 190 -195.994140625 l 1
 1 -143.994140625 l 1
EndSplineSet
Validated: 1
EndChar

StartChar: d
Encoding: 100 100 5
Width: 682
Flags: W
HStem: -10.0664 160<232.696 341.639> 0 150.927<576.849 668.38> 346.934 160<233.48 347.312> 735.002 20G<386.875 574.259>
VStem: 20 182<181.816 316.761> 377 199.849<187.655 308.045> 382.271 92.7295<126.289 420.212> 387 187.17<283.934 755.002>
LayerCount: 2
Back
SplineSet
387.270507812 755.001953125 m 5
 381.840820312 0 l 5
 578.169921875 0 l 5
 573.848632812 604.075195312 l 5
 672 602.071289062 l 5
 668.379882812 755.001953125 l 5
 387.270507812 755.001953125 l 5
EndSplineSet
Fore
SplineSet
377 246.93359375 m 4xbc
 377 308.044921875 343.166992188 346.93359375 290 346.93359375 c 4
 236.221679688 346.93359375 202 308.044921875 202 246.93359375 c 4
 202 187.655273438 236.221679688 149.93359375 290 149.93359375 c 4
 343.166992188 149.93359375 377 187.655273438 377 246.93359375 c 4xbc
475 283.93359375 m 4xba
 475 126.2890625 396.30078125 -10.06640625 248 -10.06640625 c 4
 108.666015625 -10.06640625 20 89.8779296875 20 246.93359375 c 4
 20 405.823242188 108.666015625 506.93359375 248 506.93359375 c 4
 386.72265625 506.93359375 475 420.211914062 475 283.93359375 c 4xba
382.270507812 0 m 1x7a
 387 755.001953125 l 1
 574.169921875 755.001953125 l 1x79
 576.848632812 150.926757812 l 1x7c
 672 152.930664062 l 1
 668.379882812 0 l 1
 382.270507812 0 l 1x7a
EndSplineSet
Validated: 5
EndChar

StartChar: p
Encoding: 112 112 6
Width: 682
Flags: W
HStem: -174 21G<103.83 300.159> -10.0664 160<334.688 448.52> 346.084 150.927<13.6201 108.151> 346.934 160<340.361 449.304>
VStem: 207 87.7295<76.6553 370.578> 480 182<180.106 315.052>
LayerCount: 2
Fore
SplineSet
305 249.93359375 m 0xdc
 305 188.822265625 338.833007812 149.93359375 392 149.93359375 c 0
 445.778320312 149.93359375 480 188.822265625 480 249.93359375 c 0
 480 309.211914062 445.778320312 346.93359375 392 346.93359375 c 0
 338.833007812 346.93359375 305 309.211914062 305 249.93359375 c 0xdc
207 212.93359375 m 4
 207 370.578125 285.69921875 506.93359375 434 506.93359375 c 0
 573.333984375 506.93359375 662 406.989257812 662 249.93359375 c 0
 662 91.0439453125 573.333984375 -10.06640625 434 -10.06640625 c 0
 295.27734375 -10.06640625 207 76.6552734375 207 212.93359375 c 4
294.729492188 497.010742188 m 1xec
 300.159179688 -174 l 1
 103.830078125 -174 l 1
 108.151367188 346.083984375 l 1
 10 344.080078125 l 1
 13.6201171875 497.010742188 l 1
 294.729492188 497.010742188 l 1xec
EndSplineSet
Validated: 5
EndChar

StartChar: t
Encoding: 116 116 7
Width: 443
Flags: W
HStem: 346 151<12 225.667>
VStem: 103.83 179.299<195.878 493.825>
LayerCount: 2
Fore
SplineSet
12 497 m 5
 190 493 l 5
 423 500 l 5
 419 334 l 5
 187 351 l 5
 7 346 l 5
 12 497 l 5
283.12890625 282 m 0
 283.12890625 201 299.870117188 170.66015625 397.159179688 156.930664062 c 1
 363.5390625 -16 l 1
 150.62109375 33.078125 103.830078125 72 103.830078125 262 c 0
 103.830078125 363 118.151367188 652.046875 118.151367188 652.046875 c 1
 288.729492188 645 l 1
 288.729492188 645 283.12890625 404 283.12890625 282 c 0
118.151367188 652.046875 m 1025
EndSplineSet
Validated: 5
EndChar

StartChar: l
Encoding: 108 108 8
Width: 407
Flags: W
HStem: 0 151.397<299.129 393.539> 604.075 150.927<13.6201 108.151>
VStem: 103.83 195.299<151.397 604.075>
LayerCount: 2
Back
SplineSet
105.334960938 140.244140625 m 5
 109.862304688 751.69921875 l 5
 349.01953125 797.84375 l 5
 404.7265625 645.374023438 l 5
 295.80859375 623.6875 l 5
 300.63671875 14.7734375 l 5
 48.3994140625 -44.3125 l 5
 -7.3076171875 108.157226562 l 5
 105.334960938 140.244140625 l 5
EndSplineSet
Fore
SplineSet
299.12890625 151.397460938 m 5
 397.159179688 152.930664062 l 5
 393.5390625 0 l 5
 103.830078125 0 l 5
 108.151367188 604.075195312 l 5
 10 602.071289062 l 5
 13.6201171875 755.001953125 l 5
 294.729492188 755.001953125 l 5
 299.12890625 151.397460938 l 5
EndSplineSet
Validated: 1
EndChar

StartChar: e
Encoding: 101 101 9
Width: 531
Flags: W
HStem: -23.9004 145.801<292.839 421.819> 204 102<160 346> 366.934 140<226.346 326.665>
VStem: 20 492.619<192.02 375>
LayerCount: 2
Fore
SplineSet
199 251.93359375 m 4
 199 151 276.819335938 136.854492188 443.2890625 121.900390625 c 5
 421.819335938 -23.900390625 l 5
 193.979492188 -22.2919921875 20 49 20 259 c 4
 20 399.989257812 107.833007812 506.93359375 271 506.93359375 c 4
 470.92578125 506.93359375 512.619140625 375 512.619140625 257.659179688 c 4
 512.619140625 219.858398438 507 192 507 192 c 5
 160 204 l 5
 145 306 l 5
 346 302 l 5
 346 302 345 366.93359375 278 366.93359375 c 4
 215.610351562 366.93359375 199 311.211914062 199 251.93359375 c 4
EndSplineSet
Validated: 5
EndChar

StartChar: s
Encoding: 115 115 10
Width: 388
Flags: W
HStem: 495.9 20G<297.303 300.869>
LayerCount: 2
Fore
SplineSet
297.302734375 515.900390625 m 1
 321.232421875 381.700195312 l 1
 321.232421875 381.700195312 230.431640625 375 230.431640625 346 c 0
 230.431640625 333.900390625 237.382388187 323.320470499 277.732421875 303.299804688 c 4
 342.576171875 271.125976562 368.2890625 233.5 368.2890625 172 c 0
 368.2890625 -19.900390625 63.0390625 -23.900390625 63.0390625 -23.900390625 c 1
 41.5693359375 111.900390625 l 1
 41.5693359375 111.900390625 162.4375 117.099609375 162.4375 164 c 0
 162.4375 183.099609375 151.040579252 193.356230531 122.036132812 208.700195312 c 0
 47.7504258968 247.998903291 20 278.099609375 20 335 c 0
 20 511.299804688 297.302734375 515.900390625 297.302734375 515.900390625 c 1
EndSplineSet
Validated: 1
EndChar

StartChar: b
Encoding: 98 98 11
Width: 682
Flags: W
HStem: -10.0664 160<340.361 449.304> 0 21G<103.83 300.159> 346.934 160<334.688 448.52> 604.075 150.927<13.6201 108.151>
VStem: 108.151 186.578<283.934 604.075> 207 93.1592<126.289 420.212> 480 182<181.816 316.761>
LayerCount: 2
Fore
SplineSet
305 246.93359375 m 0xb2
 305 187.655273438 338.833007812 149.93359375 392 149.93359375 c 0
 445.778320312 149.93359375 480 187.655273438 480 246.93359375 c 0
 480 308.044921875 445.778320312 346.93359375 392 346.93359375 c 0
 338.833007812 346.93359375 305 308.044921875 305 246.93359375 c 0xb2
207 283.93359375 m 0xb6
 207 420.211914062 295.27734375 506.93359375 434 506.93359375 c 0
 573.333984375 506.93359375 662 405.823242188 662 246.93359375 c 0
 662 89.8779296875 573.333984375 -10.06640625 434 -10.06640625 c 0
 285.69921875 -10.06640625 207 126.2890625 207 283.93359375 c 0xb6
294.729492188 755.001953125 m 5x7a
 300.159179688 0 l 1x76
 103.830078125 0 l 1
 108.151367188 604.075195312 l 5
 10 602.071289062 l 5
 13.6201171875 755.001953125 l 5
 294.729492188 755.001953125 l 5x7a
EndSplineSet
Validated: 5
EndChar

StartChar: grave
Encoding: 96 96 12
Width: 230
Flags: W
HStem: 516.72 223.784
VStem: 1 228.518
LayerCount: 2
Fore
SplineSet
92.6767578125 740.50390625 m 25
 229.517578125 582.465820312 l 25
 170.080078125 516.719726562 l 25
 1 636.18359375 l 25
 92.6767578125 740.50390625 l 25
EndSplineSet
Validated: 1
EndChar

StartChar: q
Encoding: 113 113 13
Width: 682
Flags: W
HStem: -173.994 150.927<576.849 668.38> -10.0664 160<232.696 341.639> 346.934 160<233.48 347.312>
VStem: 20 182<181.816 316.761> 387 187.17<283.934 496.934> 387 88<126.289 420.212>
LayerCount: 2
Fore
SplineSet
377 246.93359375 m 0xf0
 377 308.044921875 343.166992188 346.93359375 290 346.93359375 c 0
 236.221679688 346.93359375 202 308.044921875 202 246.93359375 c 0
 202 187.655273438 236.221679688 149.93359375 290 149.93359375 c 0
 343.166992188 149.93359375 377 187.655273438 377 246.93359375 c 0xf0
475 283.93359375 m 0xf4
 475 126.2890625 396.30078125 -10.06640625 248 -10.06640625 c 0
 108.666015625 -10.06640625 20 89.8779296875 20 246.93359375 c 0
 20 405.823242188 108.666015625 506.93359375 248 506.93359375 c 0
 386.72265625 506.93359375 475 420.211914062 475 283.93359375 c 0xf4
382.270507812 -173.994140625 m 1
 387 496.93359375 l 5
 574.169921875 496.93359375 l 5xf8
 576.848632812 -23.0673828125 l 1
 672 -21.0634765625 l 1
 668.379882812 -173.994140625 l 1
 382.270507812 -173.994140625 l 1
EndSplineSet
Validated: 5
EndChar

StartChar: a
Encoding: 97 97 14
Width: 682
Flags: W
HStem: -10.0664 160<232.696 341.639> 0 150.927<576.849 668.38> 346.934 160<233.48 347.312>
VStem: 20 182<181.816 316.761> 377 199.849<187.655 308.045> 387 187.17<283.934 497.002> 387 88<126.289 420.212>
LayerCount: 2
Back
SplineSet
327 169.93359375 m 4x53
 327 200.600585938 300.944335938 220.93359375 260 220.93359375 c 4
 218.444335938 220.93359375 192 200.600585938 192 169.93359375 c 4
 192 134.989257812 218.444335938 113.93359375 260 113.93359375 c 4
 300.944335938 113.93359375 327 134.989257812 327 169.93359375 c 4x53
402 183.93359375 m 0xb2
 402 79.9096513605 348.741636839 -10.06640625 208 -10.06640625 c 0
 93.1105742873 -10.06640625 20 58.7668523529 20 166.93359375 c 0
 20 270.822979267 93.1105742873 336.93359375 208 336.93359375 c 0
 326.555926487 336.93359375 402 277.433965982 402 183.93359375 c 0xb2
332.270507812 0 m 1
 332.270507812 0 337 181.337820432 337 311 c 0
 337 376.921568627 191 393 191 393 c 1
 233 521 l 1
 233 521 504.169921875 506.93359375 504.169921875 337.001953125 c 0
 504.169921875 266.75299463 506.848632812 150.926757812 506.848632812 150.926757812 c 1
 602 152.930664062 l 1
 598.379882812 0 l 1
 332.270507812 0 l 1
EndSplineSet
Fore
SplineSet
377 246.93359375 m 4xb8
 377 308.044921875 343.166992188 346.93359375 290 346.93359375 c 4
 236.221679688 346.93359375 202 308.044921875 202 246.93359375 c 4
 202 187.655273438 236.221679688 149.93359375 290 149.93359375 c 4
 343.166992188 149.93359375 377 187.655273438 377 246.93359375 c 4xb8
475 283.93359375 m 4xb2
 475 126.2890625 396.30078125 -10.06640625 248 -10.06640625 c 4
 108.666015625 -10.06640625 20 89.8779296875 20 246.93359375 c 4
 20 405.823242188 108.666015625 506.93359375 248 506.93359375 c 4
 386.72265625 506.93359375 475 420.211914062 475 283.93359375 c 4xb2
382.270507812 0 m 5x78
 387 497.001953125 l 5
 574.169921875 497.001953125 l 5x74
 576.848632812 150.926757812 l 5
 672 152.930664062 l 5
 668.379882812 0 l 5
 382.270507812 0 l 5x78
EndSplineSet
Validated: 5
EndChar

StartChar: h
Encoding: 104 104 15
Width: 663
Flags: W
HStem: 0 21G<103.83 300.159> 347.934 159<325.167 500.535> 604.075 150.927<13.6201 108.151>
VStem: 103.83 196.329<0 604.075> 446 192<-1.00814 329.64>
LayerCount: 2
Fore
SplineSet
294.729492188 755.001953125 m 1
 300.159179688 0 l 1
 103.830078125 0 l 1
 108.151367188 604.075195312 l 1
 10 602.071289062 l 1
 13.6201171875 755.001953125 l 1
 294.729492188 755.001953125 l 1
188 253.93359375 m 5
 210.936523438 411.989257812 283.27734375 506.93359375 433 506.93359375 c 4
 568.0703125 506.93359375 638 432.569335938 638 288.93359375 c 4
 638 139.458984375 620.159179688 -15 620.159179688 -15 c 5
 425.830078125 0 l 5
 425.830078125 0 446 143.766601562 446 261.93359375 c 4
 446 316.521484375 428.012695312 347.93359375 377 347.93359375 c 4
 311.48828125 347.93359375 284.346679688 311.094726562 266 216.93359375 c 5
 188 253.93359375 l 5
EndSplineSet
Validated: 5
EndChar

StartChar: n
Encoding: 110 110 16
Width: 663
Flags: W
HStem: 0 21G<103.83 300.159> 346.075 150.927<13.6201 108.151> 347.934 159<325.167 498.831>
VStem: 103.83 196.329<0 253.934> 446 192<-1.00814 329.64>
LayerCount: 2
Fore
SplineSet
188 253.93359375 m 1xb8
 210.936523438 411.989257812 283.27734375 506.93359375 433 506.93359375 c 0
 568.0703125 506.93359375 638 432.569335938 638 288.93359375 c 0
 638 139.458984375 620.159179688 -15 620.159179688 -15 c 1
 425.830078125 0 l 1
 425.830078125 0 446 143.766601562 446 261.93359375 c 0
 446 316.521484375 428.012695312 347.93359375 377 347.93359375 c 0
 311.48828125 347.93359375 284.346679688 311.094726562 266 216.93359375 c 1
 188 253.93359375 l 1xb8
294.729492188 497.001953125 m 5xd8
 300.159179688 0 l 1
 103.830078125 0 l 1
 108.151367188 346.075195312 l 5
 10 344.071289062 l 5
 13.6201171875 497.001953125 l 5
 294.729492188 497.001953125 l 5xd8
EndSplineSet
Validated: 5
EndChar

StartChar: I
Encoding: 73 73 17
Width: 468
Flags: W
HStem: 0 164<13.958 123.084 337.21 455.287> 558.08 172.931<18.748 126.279 334.135 445.857>
VStem: 123.084 214.126<164 559>
LayerCount: 2
Back
SplineSet
319.857421875 731.010742188 m 5
 325.287109375 0 l 5
 108.958007812 0 l 5
 113.279296875 560.083984375 l 5
 -4.8720703125 558.080078125 l 5
 -1.251953125 731.010742188 l 5
 319.857421875 731.010742188 l 5
EndSplineSet
Fore
SplineSet
445.857421875 731.010742188 m 1
 452.127929688 556 l 1
 334.134765625 559 l 1
 337.209960938 164 l 1
 458.26953125 168 l 5
 455.287109375 0 l 5
 13.9580078125 0 l 1
 10 166 l 1
 123.083984375 164 l 1
 126.279296875 560.083984375 l 1
 15.1279296875 558.080078125 l 1
 18.748046875 731.010742188 l 1
 445.857421875 731.010742188 l 1
EndSplineSet
Validated: 1
EndChar

StartChar: c
Encoding: 99 99 18
Width: 461
Flags: W
HStem: -10.0664 160<232.609 400.732> 346.934 160<234.533 376.802>
VStem: 20 179<184.275 312.459>
LayerCount: 2
Fore
SplineSet
20 249.93359375 m 0
 20 406.989257812 123.833220604 506.93359375 287 506.93359375 c 0
 405.535915516 506.93359375 455.916992188 450.782226562 455.916992188 450.782226562 c 1
 399.647460938 308.369140625 l 1
 399.647460938 308.369140625 362.994090218 346.93359375 306 346.93359375 c 0
 240.610710758 346.93359375 199 309.211914062 199 249.93359375 c 0
 199 188.822265625 232.833007812 149.93359375 299 149.93359375 c 0
 385.39088378 149.93359375 429.1484375 188.364257812 429.1484375 188.364257812 c 1
 471.146484375 32.31640625 l 1
 471.146484375 32.31640625 423.822161327 -10.06640625 277 -10.06640625 c 0
 119.944335938 -10.06640625 20 91.0439453125 20 249.93359375 c 0
EndSplineSet
Validated: 1
EndChar

StartChar: equal
Encoding: 61 61 19
Width: 450
Flags: W
HStem: 167 136<223 393> 178 139<49 223> 349 148<174.455 401> 360 133<49 271.545>
LayerCount: 2
Fore
SplineSet
49 317 m 5x40
 397 303 l 5
 393 167 l 1x80
 45 178 l 1
 49 317 l 5x40
49 493 m 1x10
 405 497 l 1
 401 349 l 1x20
 45 360 l 1
 49 493 l 1x10
EndSplineSet
Validated: 1
EndChar

StartChar: k
Encoding: 107 107 20
Width: 630
Flags: W
HStem: 0 21G<103.83 300.159> 494 20G<450.68 491> 604.075 150.927<13.6201 108.151>
VStem: 103.83 196.329<0 604.075>
LayerCount: 2
Fore
SplineSet
471 514 m 25
 595 390 l 25
 449 264 l 25
 620 118 l 25
 486 -17 l 25
 217 264 l 25
 471 514 l 25
294.729492188 755.001953125 m 1
 300.159179688 0 l 1
 103.830078125 0 l 1
 108.151367188 604.075195312 l 1
 10 602.071289062 l 1
 13.6201171875 755.001953125 l 1
 294.729492188 755.001953125 l 1
EndSplineSet
Validated: 5
EndChar

StartChar: m
Encoding: 109 109 21
Width: 958
Flags: W
HStem: 0 21G<103.83 300.159> 346.075 150.927<13.6201 108.151> 347.934 159<330.182 485.492 645.182 800.492>
VStem: 103.83 196.329<0 253.934> 426 192<0.311436 381.609> 741 192<-0.580393 338.226>
LayerCount: 2
Fore
SplineSet
503 253.93359375 m 1xbc
 524.064453125 411.989257812 610.5 506.93359375 748 506.93359375 c 0
 869.892578125 506.93359375 933 439.391601562 933 308.93359375 c 0
 933 149.623046875 915.159179688 -15 915.159179688 -15 c 1
 720.830078125 0 l 1
 720.830078125 0 741 154.744140625 741 281.93359375 c 0
 741 323.826171875 725.619140625 347.93359375 682 347.93359375 c 0
 634.194335938 347.93359375 594.387695312 311.094726562 581 216.93359375 c 1
 503 253.93359375 l 1xbc
188 253.93359375 m 1
 209.064453125 411.989257812 295.5 506.93359375 433 506.93359375 c 0
 554.892578125 506.93359375 618 439.391601562 618 308.93359375 c 0
 618 154.541015625 605.159179688 -5 605.159179688 -5 c 1
 415.830078125 0 l 1
 415.830078125 0 426 154.744140625 426 281.93359375 c 0
 426 323.826171875 410.619140625 347.93359375 367 347.93359375 c 0
 319.194335938 347.93359375 279.387695312 311.094726562 266 216.93359375 c 1
 188 253.93359375 l 1
294.729492188 497.001953125 m 5xdc
 300.159179688 0 l 1
 103.830078125 0 l 1
 108.151367188 346.075195312 l 5
 10 344.071289062 l 5
 13.6201171875 497.001953125 l 5
 294.729492188 497.001953125 l 5xdc
EndSplineSet
Validated: 5
EndChar

StartChar: hyphen
Encoding: 45 45 23
Width: 380
Flags: W
HStem: 175 172<139.455 366> 186 157<14 236.545>
LayerCount: 2
Fore
SplineSet
14 343 m 5x40
 370 347 l 5
 366 175 l 5x80
 10 186 l 5
 14 343 l 5x40
EndSplineSet
Validated: 1
EndChar

StartChar: three
Encoding: 51 51 24
Width: 581
Flags: W
HStem: -10.0664 174<84.2771 316.557> 532.008 199<30 273.848>
VStem: 340.917 219<188.359 280.34>
LayerCount: 2
Fore
SplineSet
396 421 m 1
 396 421 559.916992188 401.526718959 559.916992188 216.9921875 c 0
 559.916992188 68.2338010229 445.97265625 -10.06640625 266.916992188 -10.06640625 c 0
 85.2246769868 -10.06640625 8 24.0849609375 8 24.0849609375 c 1
 50 197 l 1
 50 197 126.85984585 163.93359375 233.916992188 163.93359375 c 4
 305.791015625 163.93359375 340.916992188 191.567382812 340.916992188 234.9921875 c 4
 340.916992188 273.4921875 313.850585938 297.9921875 260.916992188 297.9921875 c 4
 188.724510347 297.9921875 145.2578125 288.43359375 145.2578125 288.43359375 c 1
 129 402 l 1
 273.84765625 538.0078125 l 1
 20 532.0078125 l 1
 30 731.0078125 l 1
 529.016601562 731.0078125 l 1
 539.016601562 573.0078125 l 1
 396 421 l 1
EndSplineSet
Validated: 1
EndChar

StartChar: eight
Encoding: 56 56 25
Width: 608
Flags: W
HStem: -10.0078 168.739<236.734 360.619> 573.656 165.336<251.166 359.481>
VStem: 20 198.311<178.953 281.671> 46.6787 193.121<483.355 560.178> 373.223 184.935<466.944 559.847> 374.693 214.235<175.924 256.55>
LayerCount: 2
Fore
SplineSet
299.500976562 158.731445312 m 0xe4
 346.12895474 158.731445312 374.693359375 181.279655161 374.693359375 218.086914062 c 0xe4
 374.693359375 251.793172301 348.202336657 270.59172723 264.751953125 296.103515625 c 0
 119.516282485 340.503494736 46.6787109375 420.630140121 46.6787109375 536 c 0
 46.6787109375 660.085723141 148.472772262 738.9921875 308.55078125 738.9921875 c 0
 461.512746649 738.9921875 558.157226562 666.827860182 558.157226562 552.611328125 c 0
 558.157226562 413.3203125 414.053710938 362 414.053710938 362 c 1
 295.579101562 416.384765625 l 1
 295.579101562 416.384765625 373.22265625 460.543945312 373.22265625 519.682617188 c 0
 373.22265625 553.246718278 348.191631657 573.65625 307.02734375 573.65625 c 0
 265.56614765 573.65625 239.799804688 552.901620003 239.799804688 519.504882812 c 0xd8
 239.799804688 489.916379655 260.995231636 475.260420239 330.245117188 456.96484375 c 0
 517.258092575 407.554491755 588.928710938 340.89826254 588.928710938 216.379882812 c 0
 588.928710938 75.260500131 482.219824711 -10.0078125 305.616210938 -10.0078125 c 0
 134.082920797 -10.0078125 20 72.9892081907 20 197.782226562 c 0
 20 335.038085938 158.459960938 379.984375 158.459960938 379.984375 c 1
 282.620117188 318.284179688 l 1
 282.620117188 318.284179688 218.310546875 288.15234375 218.310546875 223.194335938 c 0
 218.310546875 184.158511732 250.335707836 158.731445312 299.500976562 158.731445312 c 0xe4
EndSplineSet
Validated: 5
EndChar

StartChar: g
Encoding: 103 103 26
Width: 611
Flags: W
HStem: -203.994 142.931<172.244 266.549> 29.9336 150<228.76 342.47> 356.934 150<228.76 348.843>
VStem: 20 182<207.736 327.541> 391.422 184.578<9.81415 496.755>
LayerCount: 2
Back
SplineSet
382.270507812 -173.994140625 m 5
 387 496.93359375 l 5
 574.169921875 496.93359375 l 5xf8
 576.848632812 -23.0673828125 l 5
 672 -21.0634765625 l 5
 668.379882812 -173.994140625 l 5
 382.270507812 -173.994140625 l 5
EndSplineSet
Fore
SplineSet
377 266.93359375 m 0
 377 321.933789063 343.166992188 356.93359375 290 356.93359375 c 0
 236.221679688 356.93359375 202 321.933789063 202 266.93359375 c 0
 202 213.76644048 236.221679688 179.93359375 290 179.93359375 c 0
 343.166992188 179.93359375 377 213.76644048 377 266.93359375 c 0
475 303.93359375 m 0
 475 157.013180272 396.30078125 29.93359375 248 29.93359375 c 0
 108.666015625 29.93359375 20 122.100160354 20 266.93359375 c 0
 20 413.600961538 108.666015625 506.93359375 248 506.93359375 c 0
 386.72265625 506.93359375 475 427.989643182 475 303.93359375 c 0
576 73 m 4
 576 -68 532 -183.994140625 173.890625 -203.994140625 c 5
 140.270507812 -61.0634765625 l 5
 339 -36 391.421875 -13 391.421875 86.9326171875 c 4
 391.421875 271 388.100585938 496.93359375 388.100585938 496.93359375 c 5
 571.270507812 496.93359375 l 5
 571.270507812 496.93359375 576 232.376953125 576 73 c 4
EndSplineSet
Validated: 5
EndChar

StartChar: u
Encoding: 117 117 27
Width: 663
Flags: W
HStem: -9.93164 159<164.169 316.686> 0 150.927<557.849 649.38> 492.002 20G<42.8408 237.17>
VStem: 25 192<167.362 498.01> 368 187.17<213.068 497.002>
LayerCount: 2
Fore
SplineSet
363.270507812 0 m 1x78
 368 497.001953125 l 1
 555.169921875 497.001953125 l 1
 557.848632812 150.926757812 l 1
 653 152.930664062 l 1
 649.379882812 0 l 1
 363.270507812 0 l 1x78
455 213.068359375 m 5
 436 122 379.72265625 -9.931640625 217 -9.931640625 c 4
 94.9296875 -9.931640625 25 64.4326171875 25 208.068359375 c 4
 25 357.54296875 42.8408203125 512.001953125 42.8408203125 512.001953125 c 5
 237.169921875 497.001953125 l 5
 237.169921875 497.001953125 217 353.235351562 217 235.068359375 c 4
 217 180.48046875 234.987304688 149.068359375 286 149.068359375 c 4xb8
 341.51171875 149.068359375 370 182 377 250.068359375 c 5
 455 213.068359375 l 5
EndSplineSet
Validated: 5
EndChar

StartChar: exclam
Encoding: 33 33 28
Width: 256
Flags: W
HStem: -10 220<57.35 198.65> 254.635 476.365<52.0198 202.984>
VStem: 18 220<29.35 170.65>
LayerCount: 2
Fore
SplineSet
14 731 m 25
 242 731 l 25
 203 245 l 21
 203 245 181 254.634765625 130 254.634765625 c 4
 79 254.634765625 52 243 52 243 c 13
 14 731 l 25
18 100 m 0
 18 167.22265625 60.77734375 210 128 210 c 0
 195.22265625 210 238 167.22265625 238 100 c 0
 238 32.77734375 195.22265625 -10 128 -10 c 0
 60.77734375 -10 18 32.77734375 18 100 c 0
EndSplineSet
Validated: 1
EndChar

StartChar: r
Encoding: 114 114 29
Width: 508
Flags: W
HStem: 0 21G<103.83 300.159> 346.075 150.927<13.6201 108.151> 496.934 20G<400.203 435.98>
VStem: 103.83 196.329<0 263.607>
LayerCount: 2
Fore
SplineSet
427 516.93359375 m 29xb0
 510.068359375 331.926757812 l 25
 263.962890625 263.607421875 l 1
 218.669921875 361.447265625 l 1
 427 516.93359375 l 29xb0
294.729492188 497.001953125 m 1xd0
 300.159179688 0 l 1
 103.830078125 0 l 1
 108.151367188 346.075195312 l 1
 10 344.071289062 l 1
 13.6201171875 497.001953125 l 1
 294.729492188 497.001953125 l 1xd0
EndSplineSet
Validated: 5
EndChar

StartChar: f
Encoding: 102 102 30
Width: 423
Flags: W
HStem: 0 21G<93.335 288.637> 346 151<12 222.333>
VStem: 83.8691 181.533<495.55 597.221> 93.335 195.302<0 476.068>
LayerCount: 2
Fore
SplineSet
12 497 m 1xc0
 190 493 l 1
 403 500 l 1
 399 334 l 1
 187 351 l 1
 7 346 l 1
 12 497 l 1xc0
95.984375 412.096679688 m 2
 96.5302734375 497.05859375 83.869140625 518 83.869140625 584 c 0
 83.869140625 713 181.047851562 768.412109375 352.01953125 797.84375 c 1
 377.7265625 628.374023438 l 1
 296 616 265.40234375 594.819335938 265.40234375 555 c 0xe0
 265.40234375 514 283.876953125 476.068359375 284.637695312 399.96484375 c 2
 288.63671875 0 l 1
 93.3349609375 0 l 1xd0
 95.984375 412.096679688 l 2
EndSplineSet
Validated: 37
EndChar

StartChar: one
Encoding: 49 49 32
Width: 371
Flags: W
HStem: 0 21G<124.958 341.287> 560.084 170.927<14.748 129.279>
VStem: 124.958 216.329<0 560.084>
LayerCount: 2
Fore
SplineSet
335.857421875 731.010742188 m 1
 341.287109375 0 l 1
 124.958007812 0 l 1
 129.279296875 560.083984375 l 5
 11.1279296875 558.080078125 l 5
 14.748046875 731.010742188 l 5
 335.857421875 731.010742188 l 1
EndSplineSet
Validated: 1
EndChar

StartChar: zero
Encoding: 48 48 33
Width: 675
Flags: W
HStem: -10.0664 195.351<281.426 392.775> 543.583 195.351<281.426 392.775>
VStem: 20 205.487<250.375 475.752> 449.513 205.487<252.023 474.053>
LayerCount: 2
Fore
SplineSet
225.487304688 361.704101562 m 0
 225.487304688 253.89172558 268.735330828 185.284179688 336.697265625 185.284179688 c 4
 405.640321066 185.284179688 449.512695312 253.89172558 449.512695312 361.704101562 c 0
 449.512695312 472.852964535 405.640321066 543.583007812 336.697265625 543.583007812 c 0
 268.735330828 543.583007812 225.487304688 472.852964535 225.487304688 361.704101562 c 0
20 361.93359375 m 0
 20 592.322641811 143.277643938 738.93359375 337 738.93359375 c 0
 531.333734557 738.93359375 655 592.322641811 655 361.93359375 c 0
 655 134.599173678 531.333734557 -10.06640625 337 -10.06640625 c 0
 143.277643938 -10.06640625 20 134.599173678 20 361.93359375 c 0
EndSplineSet
Validated: 1
EndChar

StartChar: uni0237
Encoding: 567 567 35
Width: 330
Flags: W
HStem: 346.084 150.927<13.6201 108.151>
VStem: 103.83 196.329<20 346.084>
LayerCount: 2
Fore
SplineSet
294.729492188 497.010742188 m 1
 300.159179688 0 l 1
 183 -204 l 1
 1 -118 l 5
 103.830078125 20 l 1
 108.151367188 346.083984375 l 1
 10 344.080078125 l 1
 13.6201171875 497.010742188 l 1
 294.729492188 497.010742188 l 1
EndSplineSet
Validated: 1
EndChar

StartChar: y
Encoding: 121 121 36
Width: 593
Flags: W
HStem: 491 20G<10 263.556 409.537 519.755>
LayerCount: 2
Fore
SplineSet
337.905273438 194.1328125 m 5
 327 50 l 25
 207.174804688 50 l 17
 120.151367188 352 l 1
 17.0458984375 344 l 1
 10 497 l 1
 258.546875 511 l 1
 337.905273438 194.1328125 l 5
283.198242188 94.158203125 m 10
 415.904296875 511 l 1
 592.450195312 477 l 1
 434.607421875 50 l 18
 371.131171633 -121.717451886 299 -225 299 -225 c 1
 129 -143.994140625 l 1
 129 -143.994140625 260.022200492 21.3601466407 283.198242188 94.158203125 c 10
EndSplineSet
Validated: 5
EndChar

StartChar: x
Encoding: 120 120 37
Width: 574
Flags: W
HStem: 494 20G<135.004 244.319 390.681 436.538>
LayerCount: 2
Fore
SplineSet
405 514 m 25
 569 410 l 25
 433 257 l 29
 584 98 l 25
 420 -17 l 25
 221 257 l 29
 405 514 l 25
133.142578125 339.638671875 m 1
 30.1806640625 314.47265625 l 1
 1.2314453125 465.8359375 l 1
 230 514 l 1
 414 257 l 5
 215 -17 l 1
 51 98 l 1
 202 257 l 5
 133.142578125 339.638671875 l 1
EndSplineSet
Validated: 5
EndChar

StartChar: S
Encoding: 83 83 38
Width: 487
Flags: W
HStem: 718.393 20G<375.69 379.346>
VStem: 244.121 223.215<212.673 283.456>
LayerCount: 2
Fore
SplineSet
375.690429688 738.392578125 m 1
 406.541015625 569.592773438 l 1
 406.541015625 569.592773438 262.268554688 558.505859375 262.268554688 513.049804688 c 0
 262.268554688 491.119575954 275.009624783 471.186737541 350.284179688 435.650390625 c 0
 436.708007812 394.850585938 467.3359375 337.392578125 467.3359375 251.044921875 c 0
 467.3359375 -14.0094951877 74.4423828125 -19.8779296875 74.4423828125 -19.8779296875 c 1
 47.220703125 166.682617188 l 1
 47.220703125 166.682617188 244.12109375 174.623046875 244.12109375 246 c 0
 244.12109375 266.92578125 233.191950659 282.541109115 192.401367188 302.655273438 c 0
 63.044921875 366.441975557 20 414.102909978 20 504.162109375 c 0
 20 731.98828125 375.690429688 738.392578125 375.690429688 738.392578125 c 1
EndSplineSet
Validated: 1
EndChar

StartChar: v
Encoding: 118 118 39
Width: 593
Flags: W
HStem: 0 21G<230.526 422.064> 491 20G<10 264.279 410.27 519.755>
LayerCount: 2
Fore
SplineSet
414.607421875 0 m 1
 237.174804688 0 l 1
 120.151367188 352 l 1
 17.0458984375 344 l 1
 10 497 l 1
 258.546875 511 l 1
 337.905273438 234.1328125 l 1
 415.904296875 511 l 1
 592.450195312 477 l 1
 414.607421875 0 l 1
EndSplineSet
Validated: 1
EndChar

StartChar: w
Encoding: 119 119 40
Width: 862
Flags: W
HStem: 0 21G<218.264 419.199 525.673 716.11> 491 20G<10 263.957 413.796 523.755 688.656 792.872>
LayerCount: 2
Fore
SplineSet
411.607421875 0 m 1
 224.174804688 0 l 1
 120.151367188 352 l 1
 17.0458984375 344 l 1
 10 497 l 1
 258.546875 511 l 1
 332.905273438 236.1328125 l 1
 419.904296875 521 l 1
 596.450195312 487 l 1
 411.607421875 0 l 1
709.607421875 0 m 1
 533.174804688 0 l 1
 401.151367188 352 l 1
 535 453 l 1
 610.905273438 232.1328125 l 5
 694.904296875 501 l 1
 861.450195312 467 l 1
 709.607421875 0 l 1
EndSplineSet
Validated: 5
EndChar

StartChar: six
Encoding: 54 54 41
Width: 619
Flags: W
HStem: -10 171.858<259.395 372.333> 336.009 149.718<257.176 444.792> 566.533 182.459<387.726 499.219>
VStem: 20 213.375<190.567 415.196> 399.625 199.691<187.448 311.063>
LayerCount: 2
Fore
SplineSet
498.310546875 748.9921875 m 1
 522 566.533203125 l 5
 261.015683787 544.143993801 251.458007812 463.932617188 251.458007812 463.932617188 c 5
 251.458007812 463.932617188 284.626883182 485.7265625 374.600585938 485.7265625 c 0
 513.98073582 485.7265625 599.31640625 394.002929688 599.31640625 255.249023438 c 0
 599.31640625 105.139648438 520.52726296 -10 316.310546875 -10 c 0
 138.863937848 -10 20 82.3932717405 20 306.348632812 c 0
 20 519.13616121 134.575531105 728.463768616 498.310546875 748.9921875 c 1
233.375 249.858398438 m 0
 233.375 196.080078125 265.516601562 161.858398438 316.025390625 161.858398438 c 0
 367.114257812 161.858398438 399.625 196.080078125 399.625 249.858398438 c 0
 399.625 302.505859375 367.114257812 336.008789062 316.025390625 336.008789062 c 0
 265.516601562 336.008789062 233.375 302.505859375 233.375 249.858398438 c 0
EndSplineSet
Validated: 1
EndChar

StartChar: z
Encoding: 122 122 42
Width: 461
Flags: W
HStem: 0 164<257.169 431.017> 338 159<30 193.848>
LayerCount: 2
Fore
SplineSet
20 338 m 1
 30 497 l 1
 399.016601562 497 l 5
 429.016601562 369 l 5
 257.168945312 164 l 1
 441.016601562 170 l 1
 431.016601562 0 l 1
 32 0 l 1
 12 128 l 1
 193.84765625 344 l 1
 20 338 l 1
EndSplineSet
Validated: 1
EndChar

StartChar: O
Encoding: 79 79 43
Width: 765
Flags: W
HStem: -10.0664 205.351<296.681 461.379> 533.583 205.351<298.251 459.688>
VStem: 20 205.487<269.389 456.402> 539.513 205.487<271.083 454.652>
LayerCount: 2
Fore
SplineSet
225.487304688 361.704101562 m 4
 225.487304688 260.002848113 284.290781356 195.284179688 376.697265625 195.284179688 c 4
 476.196006415 195.284179688 539.512695312 260.002848113 539.512695312 361.704101562 c 4
 539.512695312 466.741818099 476.196006415 533.583007812 376.697265625 533.583007812 c 4
 284.290781356 533.583007812 225.487304688 466.741818099 225.487304688 361.704101562 c 4
20 361.93359375 m 4
 20 592.322641811 158.833182606 738.93359375 377 738.93359375 c 4
 601.889353198 738.93359375 745 592.322641811 745 361.93359375 c 4
 745 134.599173678 601.889353198 -10.06640625 377 -10.06640625 c 4
 158.833182606 -10.06640625 20 134.599173678 20 361.93359375 c 4
EndSplineSet
Validated: 1
EndChar

StartChar: L
Encoding: 76 76 44
Width: 620
Flags: W
HStem: 0 171.293<339.065 606.539> 560.084 170.927<13.6201 128.151>
VStem: 123.43 215.635<171.293 560.084>
LayerCount: 2
Fore
SplineSet
339.064795055 171.292732541 m 1
 610.159179688 172.930664062 l 5
 606.5390625 0 l 5
 123.4296875 0 l 1
 128.151367188 560.083984375 l 1
 10 558.080078125 l 1
 13.6201171875 731.010742188 l 1
 334.729492188 731.010742188 l 1
 339.064795055 171.292732541 l 1
EndSplineSet
Validated: 1
EndChar

StartChar: K
Encoding: 75 75 45
Width: 757
Flags: W
HStem: 0 21G<123.83 340.159> 560.084 170.927<13.6201 128.151>
VStem: 123.83 216.329<0 560.084>
LayerCount: 2
Fore
SplineSet
334.729492188 731.010742188 m 1
 340.159179688 0 l 1
 123.830078125 0 l 1
 128.151367188 560.083984375 l 1
 10 558.080078125 l 1
 13.6201171875 731.010742188 l 1
 334.729492188 731.010742188 l 1
538 745.0078125 m 1
 722 621.0078125 l 1
 506 364 l 1
 747 108 l 5
 553 -27 l 5
 264 364 l 1
 538 745.0078125 l 1
EndSplineSet
Validated: 5
EndChar

StartChar: J
Encoding: 74 74 46
Width: 370
Flags: W
HStem: 560.084 170.927<13.6201 128.151>
VStem: 123.83 216.329<70 560.084>
LayerCount: 2
Fore
SplineSet
334.729492188 731.010742188 m 1
 340.159179688 30 l 1
 198 -197 l 1
 0 -100 l 5
 123.830078125 70 l 1
 128.151367188 560.083984375 l 1
 10 558.080078125 l 1
 13.6201171875 731.010742188 l 1
 334.729492188 731.010742188 l 1
EndSplineSet
Validated: 1
EndChar

StartChar: H
Encoding: 72 72 47
Width: 780
Flags: W
HStem: 0 21G<123.83 340.159 533.83 750.159> 245 172<377.455 604> 256 157<252 474.545> 560.084 170.927<13.6201 128.151 423.62 538.151>
VStem: 123.83 216.329<0 256 413 560.084> 248 92.1592<256 413> 533.83 216.329<0 245 417 560.084>
LayerCount: 2
Fore
SplineSet
252 413 m 5xb6
 608 417 l 5
 604 245 l 5xd6
 248 256 l 5
 252 413 l 5xb6
744.729492188 731.010742188 m 1
 750.159179688 0 l 1
 533.830078125 0 l 1
 538.151367188 560.083984375 l 1
 420 558.080078125 l 1
 423.620117188 731.010742188 l 1
 744.729492188 731.010742188 l 1
334.729492188 731.010742188 m 1
 340.159179688 0 l 1
 123.830078125 0 l 1x9a
 128.151367188 560.083984375 l 1
 10 558.080078125 l 1
 13.6201171875 731.010742188 l 1
 334.729492188 731.010742188 l 1
EndSplineSet
Validated: 5
EndChar

StartChar: backslash
Encoding: 92 92 48
Width: 507
Flags: W
LayerCount: 2
Fore
SplineSet
506 -143.994140625 m 1
 317 -195.994140625 l 1
 1 743.001953125 l 5
 190 795.001953125 l 5
 506 -143.994140625 l 1
EndSplineSet
Validated: 1
EndChar

StartChar: F
Encoding: 70 70 49
Width: 620
Flags: W
HStem: 0 21G<123.83 340.159> 235 172<327.455 554> 246 157<202 424.545> 558.08 172.931<13.6201 128.151 336.104 598.729>
VStem: 198 142.159<246 403>
LayerCount: 2
Fore
SplineSet
202 403 m 1xb8
 558 407 l 1
 554 235 l 1xd8
 198 246 l 1
 202 403 l 1xb8
598.729492188 731.010742188 m 5
 604.61328125 554 l 5
 336.103515625 558 l 5
 340.159179688 0 l 5
 123.830078125 0 l 5
 128.151367188 560.083984375 l 5
 10 558.080078125 l 5
 13.6201171875 731.010742188 l 5
 598.729492188 731.010742188 l 5
EndSplineSet
Validated: 5
EndChar

StartChar: E
Encoding: 69 69 50
Width: 620
Flags: W
HStem: 0 171.293<339.065 606.539> 278 172<327.455 554> 289 157<202 424.545> 558.08 172.931<13.6201 128.151 336.104 598.729>
VStem: 198 141.017<289 446>
LayerCount: 2
Fore
SplineSet
202 446 m 5xb8
 558 450 l 5
 554 278 l 5xd8
 198 289 l 5
 202 446 l 5xb8
598.729492188 731.010742188 m 5
 604.61328125 554 l 5
 336.103515625 558 l 5
 339.017254914 171.480871913 l 5
 339.064795055 171.292732541 l 5
 610.159179688 172.930664062 l 5
 606.5390625 0 l 5
 123.4296875 0 l 5
 128.151367188 560.083984375 l 5
 10 558.080078125 l 5
 13.6201171875 731.010742188 l 5
 598.729492188 731.010742188 l 5
EndSplineSet
Validated: 5
EndChar

StartChar: N
Encoding: 78 78 51
Width: 781
Flags: W
HStem: 0 21G<125.21 331.539> 711.011 20G<552.787 746.258>
VStem: 125.21 206.329<0 351.793> 549.151 196.958<369.889 731.011>
LayerCount: 2
Fore
SplineSet
746.109375 731.010742188 m 1
 751.5390625 0 l 1
 555.209960938 -10 l 1
 328.92578125 351.79296875 l 1
 331.5390625 0 l 1
 125.209960938 0 l 1
 129.53125 564.083984375 l 5
 14.3798828125 558.080078125 l 5
 10 731.010742188 l 5
 346.109375 741.010742188 l 5
 549.151367188 369.888671875 l 1
 553 731.010742188 l 1
 746.109375 731.010742188 l 1
EndSplineSet
Validated: 1
EndChar

StartChar: bar
Encoding: 124 124 52
Width: 256
Flags: W
VStem: 30 196.329<-170 788.992>
LayerCount: 2
Fore
SplineSet
220.899414062 788.9921875 m 5
 226.329101562 -170 l 1
 30 -170 l 1
 36.169921875 788.9921875 l 5
 220.899414062 788.9921875 l 5
EndSplineSet
Validated: 1
EndChar

StartChar: U
Encoding: 85 85 53
Width: 767
Flags: W
HStem: -10 192<358.339 494.701> 560.084 170.927<13.6201 128.151 403.62 522.151>
VStem: 116.517 209.643<212.019 645.363> 527.83 209.812<214.132 556.03>
LayerCount: 2
Fore
SplineSet
737.641601562 250.946289062 m 0
 737.641601562 87.6005859375 620.267578125 -10 423.830078125 -10 c 0
 223.546875 -10 116.516601562 87.5517578125 116.516601562 270.099609375 c 0
 116.516601562 383.298828125 128.151367188 560.083984375 128.151367188 560.083984375 c 1
 10 558.080078125 l 1
 13.6201171875 731.010742188 l 1
 330.729492188 731.010742188 l 1
 330.729492188 731.010742188 326.159179688 401.265625 326.159179688 286 c 0
 326.159179688 224.055664062 351.038085938 182 422 182 c 0
 495.7890625 182 527.830078125 219.811523438 527.830078125 286 c 0
 527.830078125 391.94921875 522.151367188 560.083984375 522.151367188 560.083984375 c 1
 400 558.080078125 l 1
 403.620117188 731.010742188 l 1
 724.729492188 731.010742188 l 1
 724.729492188 731.010742188 737.641601562 438.259765625 737.641601562 250.946289062 c 0
EndSplineSet
Validated: 1
EndChar

StartChar: A
Encoding: 65 65 54
Width: 670
Flags: W
HStem: 118 172<277.455 504> 129 157<152 374.545> 529.069 191.931<45.8193 177.508> 711 20G<41.4395 450.11>
LayerCount: 2
Fore
SplineSet
152 286 m 1x40
 508 290 l 1
 504 118 l 1x80
 148 129 l 1
 152 286 l 1x40
177.5078125 534.112304688 m 1
 45.8193359375 529.069335938 l 5
 41.439453125 721 l 5x20
 443.548828125 731 l 1x10
 678.450195312 14.9111328125 l 1
 467.176757812 -15 l 1
 336.818359375 476.8671875 l 1
 199.819335938 -15 l 1
 -9.7265625 19 l 1
 177.5078125 534.112304688 l 1
EndSplineSet
Validated: 5
EndChar

StartChar: B
Encoding: 66 66 55
Width: 739
Flags: W
HStem: -10.0664 174<331.018 485.432> 297.992 139.941<328.823 457.956> 555.992 183<326.758 450.763> 555.992 33.2578<166.336 325.67>
VStem: 118 209.714<167.246 288.434 448.877 589.25> 470.917 209<453.359 534.968> 510.917 209<188.942 279.999>
LayerCount: 2
Fore
SplineSet
285.196289062 448.876953125 m 5xda
 285.196289062 448.876953125 317.522460938 437.93359375 390.916992188 437.93359375 c 4
 443.850585938 437.93359375 470.916992188 459.322265625 470.916992188 492.93359375 c 4
 470.916992188 531.469726562 435.791015625 555.9921875 363.916992188 555.9921875 c 4
 166.3359375 555.9921875 39.26953125 471.427734375 39.26953125 471.427734375 c 1
 -2 664.840820312 l 1
 -2 664.840820312 113.998046875 738.9921875 386.916992188 738.9921875 c 0
 565.97265625 738.9921875 679.916992188 654.581054688 679.916992188 521.93359375 c 0xec
 679.916992188 413.459960938 586.275390625 384.96875 586.275390625 384.96875 c 1
 586.275390625 384.96875 719.916992188 354.49609375 719.916992188 196.9921875 c 0
 719.916992188 70.4560546875 605.97265625 -10.06640625 426.916992188 -10.06640625 c 0
 210.137695312 -10.06640625 118 24.0849609375 118 24.0849609375 c 1
 123.940429688 589.25 l 1
 325.669921875 589.25 l 1
 327.713867188 167.24609375 l 1
 327.713867188 167.24609375 347.770507812 163.93359375 403.916992188 163.93359375 c 0
 475.791015625 163.93359375 510.916992188 191.567382812 510.916992188 234.9921875 c 0
 510.916992188 273.4921875 483.850585938 297.9921875 430.916992188 297.9921875 c 0
 339.999023438 297.9921875 285.2578125 288.43359375 285.2578125 288.43359375 c 1
 285.196289062 448.876953125 l 5xda
EndSplineSet
Validated: 5
EndChar

StartChar: C
Encoding: 67 67 56
Width: 641
Flags: W
HStem: -10.0664 206<316.088 532.896> 533.992 205<325.34 512.002>
VStem: 20 226<269.622 454.823>
LayerCount: 2
Fore
SplineSet
20 361.93359375 m 0
 20 592.358449127 162.722067273 738.9921875 387 738.9921875 c 0
 561.675165443 738.9921875 635.916992188 662.840820312 635.916992188 662.840820312 c 1
 574.647460938 475.427734375 l 5
 574.647460938 475.427734375 510.596273719 533.9921875 411 533.9921875 c 4
 310.1660493 533.9921875 246 467.081474501 246 361.93359375 c 4
 246 260.488789062 299.456152344 195.93359375 404 195.93359375 c 4
 536.855996852 195.93359375 604.1484375 254.364257812 604.1484375 254.364257812 c 5
 651.146484375 52.31640625 l 1
 651.146484375 52.31640625 584.321700857 -10.06640625 377 -10.06640625 c 0
 158.833182606 -10.06640625 20 134.599173678 20 361.93359375 c 0
EndSplineSet
Validated: 1
EndChar

StartChar: D
Encoding: 68 68 57
Width: 773
Flags: W
HStem: -10.0664 197<330.852 466.41> 539.992 199<332.557 461.153> 539.992 59.2578<170.25 325.67>
VStem: 123.94 201.729<188.847 599.25> 538.917 215<262.359 463.054>
LayerCount: 2
Fore
SplineSet
753.916992188 361.93359375 m 0xd8
 753.916992188 134.599609375 615.083984375 -10.06640625 396.916992188 -10.06640625 c 0
 185.814453125 -10.06640625 117.770507812 37.31640625 117.770507812 37.31640625 c 1
 123.940429688 599.25 l 1
 325.669921875 599.25 l 1xb8
 329.002929688 188.846679688 l 1
 329.002929688 188.846679688 351.546875 186.93359375 380.916992188 186.93359375 c 0
 485.4609375 186.93359375 538.916992188 254.98828125 538.916992188 361.93359375 c 0
 538.916992188 470.748046875 484.750976562 539.9921875 373.916992188 539.9921875 c 0
 170.25 539.9921875 39.26953125 471.427734375 39.26953125 471.427734375 c 1
 -2 664.840820312 l 1
 -2 664.840820312 113.998046875 738.9921875 386.916992188 738.9921875 c 0
 611.1953125 738.9921875 753.916992188 592.358398438 753.916992188 361.93359375 c 0xd8
EndSplineSet
Validated: 5
EndChar

StartChar: P
Encoding: 80 80 58
Width: 724
Flags: W
HStem: 0 21G<117.771 329.003> 169.934 175<328.892 461.169> 542.992 196<332.642 451.253> 542.992 56.2578<166.336 325.67>
VStem: 117.771 211.232<0 194.434 365.877 599.25> 495.917 209<378.517 501.601>
LayerCount: 2
Fore
SplineSet
329.002929688 0 m 5xdc
 117.770507812 0 l 5
 123.940429688 599.25 l 5
 325.669921875 599.25 l 5
 329.002929688 0 l 5xdc
284.196289062 365.876953125 m 1
 284.196289062 365.876953125 316.828125 344.93359375 390.916992188 344.93359375 c 0
 460.392578125 344.93359375 495.916992188 381.877929688 495.916992188 439.93359375 c 0
 495.916992188 502.9140625 452.583984375 542.9921875 363.916992188 542.9921875 c 0
 166.3359375 542.9921875 39.26953125 471.427734375 39.26953125 471.427734375 c 1
 -2 664.840820312 l 1
 -2 664.840820312 113.998046875 738.9921875 386.916992188 738.9921875 c 0xec
 581.25 738.9921875 704.916992188 619.581054688 704.916992188 431.93359375 c 0
 704.916992188 271.821289062 596.805664062 169.93359375 426.916992188 169.93359375 c 0
 319.770507812 169.93359375 255.2578125 194.43359375 255.2578125 194.43359375 c 1
 284.196289062 365.876953125 l 1
EndSplineSet
Validated: 5
EndChar

StartChar: M
Encoding: 77 77 59
Width: 909
VWidth: 1111
Flags: W
LayerCount: 2
Fore
SplineSet
128.817481776 545.212951969 m 5
 13 539.080078125 l 5
 8.6201171875 731.010742188 l 5
 370.729492188 741.010742188 l 5
 493 417 l 1
 642 740 l 1
 856 731 l 1
 915 5 l 1
 693 -9 l 1
 664 381 l 1
 536 120 l 1
 436 120 l 1
 320 372 l 1
 286 -6 l 1
 85 9 l 1
 128.817481776 545.212951969 l 5
EndSplineSet
Validated: 1
EndChar

StartChar: G
Encoding: 71 71 60
Width: 741
Flags: W
HStem: -10.0664 206<316.836 484.469> 533.992 205<325.34 526.222>
VStem: 20 226<269.622 454.823> 502.817 208.329<274.364 399.25>
LayerCount: 2
Fore
SplineSet
705.716796875 399.25 m 5
 711.146484375 -77.68359375 l 5
 502.817382812 -77.68359375 l 5
 508.987304688 399.25 l 5
 705.716796875 399.25 l 5
20 361.93359375 m 0
 20 592.358449127 162.722067273 738.9921875 387 738.9921875 c 0
 575.709977925 738.9921875 655.916992188 662.840820312 655.916992188 662.840820312 c 1
 594.647460938 475.427734375 l 1
 594.647460938 475.427734375 522.768326148 533.9921875 411 533.9921875 c 0
 310.1660493 533.9921875 246 467.081474501 246 361.93359375 c 0
 246 260.488789062 299.456152344 195.93359375 404 195.93359375 c 0
 523.58025026 195.93359375 584.1484375 274.364257812 584.1484375 274.364257812 c 1
 651.146484375 152.31640625 l 1
 651.146484375 152.31640625 579.446585739 -10.06640625 357 -10.06640625 c 0
 151.055413272 -10.06640625 20 134.599173678 20 361.93359375 c 0
EndSplineSet
Validated: 5
EndChar

StartChar: T
Encoding: 84 84 61
Width: 590
Flags: W
HStem: 0 21G<181.83 398.159> 558 30<186.151 394.104> 558.08 172.931<13.6201 186.151 394.104 568.729>
VStem: 181.83 216.329<0 588>
LayerCount: 2
Fore
SplineSet
394.103515625 588 m 5xd0
 398.159179688 0 l 5
 181.830078125 0 l 5
 186.151367188 590.083984375 l 5
 394.103515625 588 l 5xd0
292.103515625 558 m 5
 10 558.080078125 l 1
 13.6201171875 731.010742188 l 1
 568.729492188 731.010742188 l 1xb0
 574.61328125 554 l 1
 292.103515625 558 l 5
EndSplineSet
Validated: 5
EndChar

StartChar: V
Encoding: 86 86 62
Width: 783
Flags: W
HStem: 0 21G<316.915 530.159>
LayerCount: 2
Fore
SplineSet
522.607421875 0 m 1
 323.174804688 0 l 1
 149.151367188 556 l 1
 26.0458984375 548 l 1
 19 732 l 1
 307.546875 746 l 1
 437.905273438 284.1328125 l 5
 574.904296875 746 l 1
 791.450195312 712 l 1
 522.607421875 0 l 1
EndSplineSet
Validated: 1
EndChar

StartChar: W
Encoding: 87 87 63
Width: 1143
Flags: W
HStem: 0 21G<298.598 520.941 705.73 929.127> 716 20G<929.861 1062.28>
LayerCount: 2
Fore
SplineSet
513.607421875 0 m 1
 304.174804688 0 l 1
 149.151367188 556 l 1
 26.0458984375 548 l 1
 19 732 l 1
 307.546875 746 l 1
 428.905273438 264.1328125 l 1
 562.904296875 759 l 1
 779.450195312 725 l 1
 513.607421875 0 l 1
922.607421875 0 m 1
 713.174804688 0 l 1
 552 433 l 1
 695.395507812 623 l 1
 815.905273438 264.1328125 l 1
 934.904296875 736 l 1
 1151.45019531 702 l 1
 922.607421875 0 l 1
EndSplineSet
Validated: 5
EndChar

StartChar: Q
Encoding: 81 81 64
Width: 765
Flags: W
HStem: -10.0664 205.351<296.681 461.379> 533.583 205.351<298.251 459.688>
VStem: 20 205.487<269.389 456.402> 539.513 205.487<271.083 454.652>
LayerCount: 2
Fore
SplineSet
78 151 m 1
 820 11 l 1
 770 -184 l 5
 54 29 l 5
 78 151 l 1
EndSplineSet
Refer: 43 79 N 1 0 0 1 0 0 2
Validated: 5
EndChar

StartChar: underscore
Encoding: 95 95 65
Width: 580
Flags: W
HStem: -148 152<212.182 566> -137 137<14 363.818>
LayerCount: 2
Fore
SplineSet
14 0 m 1x40
 570 4 l 1
 566 -148 l 5x80
 10 -137 l 5
 14 0 l 1x40
EndSplineSet
Validated: 1
EndChar

StartChar: R
Encoding: 82 82 66
Width: 719
Flags: W
HStem: 0 21G<117.771 329.003> 542.992 196<332.642 454.837> 542.992 56.2578<166.336 325.67>
VStem: 117.771 211.232<0 244.434 395.877 599.25> 489.917 209<399.964 508.654>
LayerCount: 2
Fore
SplineSet
329.002929688 0 m 1xb8
 117.770507812 0 l 1
 123.940429688 599.25 l 1
 325.669921875 599.25 l 1
 329.002929688 0 l 1xb8
284.196289062 395.876953125 m 1
 284.196289062 395.876953125 316.828125 374.93359375 390.916992188 374.93359375 c 0
 456.421875 374.93359375 489.916992188 405.266601562 489.916992188 452.93359375 c 0
 489.916992188 507.969726562 448.553710938 542.9921875 363.916992188 542.9921875 c 0
 166.3359375 542.9921875 39.26953125 471.427734375 39.26953125 471.427734375 c 1
 -2 664.840820312 l 1
 -2 664.840820312 113.998046875 738.9921875 386.916992188 738.9921875 c 0xd8
 577.583984375 738.9921875 698.916992188 634.747070312 698.916992188 470.93359375 c 0
 698.916992188 303.419921875 544.740234375 261.040039062 544.740234375 261.040039062 c 5
 709.770507812 138 l 1
 585.770507812 -37 l 1
 235.2578125 244.43359375 l 1
 284.196289062 395.876953125 l 1
EndSplineSet
Validated: 5
EndChar

StartChar: five
Encoding: 53 53 67
Width: 581
Flags: W
HStem: -10.0664 174<103.48 311.019> 317.992 161.008<224.415 404.235> 550 181.008<239 519.017>
VStem: 340.917 219<190.952 292.134>
LayerCount: 2
Back
SplineSet
529.016601562 549.0078125 m 5
 239 550 l 29
 224 471 l 21
 224 471 248.642857143 479 316 479 c 4
 492.46964774 479 559.916992188 386.635747331 559.916992188 246.9921875 c 4
 559.916992188 68.1744133844 445.97265625 -10.06640625 266.916992188 -10.06640625 c 4
 85.2246769868 -10.06640625 8 44.0849609375 8 44.0849609375 c 5
 50 207 l 5
 50 207 126.85984585 163.93359375 233.916992188 163.93359375 c 4
 305.791015625 163.93359375 340.916992188 195.456256431 340.916992188 244.9921875 c 4
 340.916992188 289.603298611 303.700683594 317.9921875 230.916992188 317.9921875 c 4
 164.966339317 317.9921875 125.2578125 288.43359375 125.2578125 288.43359375 c 5
 19 392 l 5
 80 731.0078125 l 5
 365 731.0078125 l 5
 362 798.0078125 l 5
 515.016601562 800.0078125 l 5
 529.016601562 549.0078125 l 5
EndSplineSet
Fore
SplineSet
529.016601562 549.0078125 m 5
 239 550 l 29
 224 471 l 21
 224 471 248.642857143 479 316 479 c 4
 492.46964774 479 559.916992188 386.635747331 559.916992188 246.9921875 c 4
 559.916992188 68.1744133844 445.97265625 -10.06640625 266.916992188 -10.06640625 c 4
 85.2246769868 -10.06640625 8 44.0849609375 8 44.0849609375 c 5
 50 207 l 5
 50 207 126.85984585 163.93359375 233.916992188 163.93359375 c 4
 305.791015625 163.93359375 340.916992188 195.456256431 340.916992188 244.9921875 c 4
 340.916992188 289.603298611 303.700683594 317.9921875 230.916992188 317.9921875 c 4
 164.966339317 317.9921875 125.2578125 288.43359375 125.2578125 288.43359375 c 5
 19 392 l 5
 80 731.0078125 l 5
 519.016601562 731.0078125 l 5
 529.016601562 549.0078125 l 5
EndSplineSet
Validated: 1
EndChar

StartChar: Z
Encoding: 90 90 68
Width: 601
Flags: W
HStem: 0 194<297.169 571.017> 532.008 199<30 293.848>
LayerCount: 2
Fore
SplineSet
20 532.0078125 m 1
 30 731.0078125 l 1
 559.016601562 731.0078125 l 5
 589.016601562 573.0078125 l 1
 297.168945312 194 l 1
 581.016601562 200 l 1
 571.016601562 0 l 1
 32 0 l 1
 12 158 l 1
 293.84765625 538.0078125 l 1
 20 532.0078125 l 1
EndSplineSet
Validated: 1
EndChar

StartChar: Y
Encoding: 89 89 69
Width: 753
Flags: W
HStem: 0 21G<303.83 526.159>
VStem: 307.623 215.111<0 260.155>
LayerCount: 2
Fore
SplineSet
307.623046875 260.155273438 m 1
 153.151367188 551 l 1
 36.0458984375 533 l 1
 19 722 l 1
 307.546875 746 l 1
 424.905273438 474.1328125 l 5
 544.904296875 746 l 1
 761.450195312 682 l 1
 522.734375 266.650390625 l 1
 526.159179688 0 l 1
 303.830078125 0 l 1
 307.623046875 260.155273438 l 1
EndSplineSet
Validated: 1
EndChar

StartChar: X
Encoding: 88 88 70
Width: 776
Flags: W
LayerCount: 2
Fore
SplineSet
287 745.0078125 m 1
 531 364 l 1
 262 -27 l 1
 68 108 l 1
 289 364 l 1
 174 521.0078125 l 1
 44 486.93359375 l 1
 -2 671 l 1
 287 745.0078125 l 1
572 745.0078125 m 1
 756 621.0078125 l 1
 560 364 l 1
 781 108 l 1
 587 -27 l 1
 318 364 l 1
 572 745.0078125 l 1
EndSplineSet
Validated: 5
EndChar

StartChar: comma
Encoding: 44 44 71
Width: 280
Flags: W
VStem: -31 307
LayerCount: 2
Fore
SplineSet
81 243 m 29
 276 141 l 29
 81 -109 l 29
 -31 -44 l 29
 81 243 l 29
EndSplineSet
Validated: 1
EndChar

StartChar: at
Encoding: 64 64 74
Width: 811
Flags: W
HStem: -9.99805 141.918<362.029 627.198> 185.635 116.316<419.394 528.707> 418.726 109.902<418.322 528.206> 575.459 163.533<343.438 550.807>
VStem: 30 186.5<259.778 454.416> 280.624 126.264<316.098 406.125> 541.264 239.959<317.183 526.201>
LayerCount: 2
Fore
SplineSet
432.387695312 738.9921875 m 0
 635.58420473 738.9921875 781.22265625 623.739934802 781.22265625 428.661132812 c 0
 781.22265625 254.403131624 658.83819284 185.634765625 498.162109375 185.634765625 c 0
 370.312298087 185.634765625 280.624023438 247.902018082 280.624023438 356.119140625 c 0
 280.624023438 469.160330494 366.281270691 528.627929688 469.510742188 528.627929688 c 0
 583.761795313 528.627929688 630.260742188 475.208984375 630.260742188 475.208984375 c 1
 630.260742188 475.208984375 598.766304645 575.458984375 448.662109375 575.458984375 c 0
 302.651008363 575.458984375 216.5 484.058468447 216.5 356.098632812 c 0
 216.5 219.631105851 312.223696612 131.919921875 492.640625 131.919921875 c 0
 636.876134453 131.919921875 720.6015625 188.071289062 720.6015625 188.071289062 c 1
 764.8125 71.6552734375 l 1
 764.8125 71.6552734375 672.672812484 -9.998046875 442.92578125 -9.998046875 c 0
 189.7832608 -9.998046875 30 146.940534622 30 369.733398438 c 0
 30 578.604440798 193.880131201 738.9921875 432.387695312 738.9921875 c 0
474.0703125 418.725585938 m 0
 430.926398188 418.725585938 406.887695312 397.836950747 406.887695312 360.346679688 c 0
 406.887695312 322.994095414 431.097069108 301.951171875 474.0703125 301.951171875 c 0
 516.89632758 301.951171875 541.263671875 323.128018179 541.263671875 360.346679688 c 0
 541.263671875 397.691358186 517.053550185 418.725585938 474.0703125 418.725585938 c 0
EndSplineSet
Validated: 1
EndChar

StartChar: percent
Encoding: 37 37 75
Width: 889
Flags: W
HStem: -10 135.303<635.612 712.699> 235.479 135.399<635.292 713.022> 358.113 135.303<175.612 252.699> 603.593 135.399<175.292 253.022>
VStem: 19.5205 146.384<501.768 596.134> 262.704 146.416<502.1 595.813> 479.521 146.384<133.655 228.021> 722.704 146.416<133.987 227.7>
LayerCount: 2
Fore
SplineSet
625.904296875 181.302734375 m 0xdf
 625.904296875 147.080592105 644.607826248 125.302734375 674 125.302734375 c 0
 703.763657131 125.302734375 722.704101562 147.080592105 722.704101562 181.302734375 c 0
 722.704101562 214.41091252 703.763657131 235.479492188 674 235.479492188 c 0
 644.607826248 235.479492188 625.904296875 214.41091252 625.904296875 181.302734375 c 0xdf
479.520507812 181.399414062 m 0
 479.520507812 297.192737064 555.151113526 370.87890625 674 370.87890625 c 0
 793.240276768 370.87890625 869.120117188 297.192737064 869.120117188 181.399414062 c 0
 869.120117188 64.4329057749 793.240276768 -10 674 -10 c 0
 555.151113526 -10 479.520507812 64.4329057749 479.520507812 181.399414062 c 0
165.904296875 549.416015625 m 4
 165.904296875 515.193873355 184.607826248 493.416015625 214 493.416015625 c 4xbf
 243.763657131 493.416015625 262.704101562 515.193873355 262.704101562 549.416015625 c 4
 262.704101562 582.52419377 243.763657131 603.592773438 214 603.592773438 c 4
 184.607826248 603.592773438 165.904296875 582.52419377 165.904296875 549.416015625 c 4
19.5205078125 549.512695312 m 4
 19.5205078125 665.306018314 95.1511135263 738.9921875 214 738.9921875 c 4
 333.240276768 738.9921875 409.120117188 665.306018314 409.120117188 549.512695312 c 4
 409.120117188 432.546187025 333.240276768 358.11328125 214 358.11328125 c 4
 95.1511135263 358.11328125 19.5205078125 432.546187025 19.5205078125 549.512695312 c 4
726.329101562 671.93359375 m 1
 487.708984375 344.799804688 l 1
 280.758789062 -26 l 1
 159.4296875 48 l 1
 401.908203125 383.200195312 l 1
 611.599609375 748.93359375 l 1
 726.329101562 671.93359375 l 1
EndSplineSet
Validated: 1
EndChar

StartChar: ampersand
Encoding: 38 38 76
Width: 706
Flags: W
HStem: -9.99805 176.998<242.634 400.844> 264 159<580 658.556>
VStem: 20 205<185.991 269.289> 38 206<474.715 547.9> 404 195<184 421.364> 580 12<264 423>
LayerCount: 2
Fore
SplineSet
686 427 m 25xc4
 683 255 l 25
 573 264 l 25
 580 423 l 25
 686 427 l 25xc4
365 745 m 9
 390 583 l 17
 298 568 244 555 244 511.93359375 c 0xd0
 244 468 290 459 354 450 c 9
 347 289 l 17
 254 289 225 265 225 228 c 16
 225 191 252 167 315 167 c 16
 378 167 404 184 404 184 c 25xe8
 415 557 l 25
 592 547 l 25xc4
 599 55 l 25
 599 55 507 -9.998046875 315 -9.998046875 c 0
 183 -9.998046875 20 10 20 197 c 16xe8
 20 360 167 384 167 384 c 1
 167 384 38 410.984375 38 537 c 0xd0
 38 638 121 719 365 745 c 9
EndSplineSet
Validated: 5
EndChar

StartChar: two
Encoding: 50 50 77
Width: 599
Flags: W
HStem: 0 194<345.152 569> 545 194<157.52 301.655>
VStem: 326.364 228.6<415.574 591.463>
LayerCount: 2
Fore
SplineSet
345.15234375 194 m 5
 579 200 l 1
 569 0 l 1
 29.9833984375 0 l 1
 19.9833984375 158 l 1
 19.9833984375 158 326.364257812 303.896484375 326.364257812 465 c 0
 326.364257812 518.841796875 291.873046875 545 242.955078125 545 c 0
 159.375 545 108.463867188 488 108.463867188 488 c 1
 20.5634765625 648 l 1
 20.5634765625 648 121.564453125 739 291.03125 739 c 0
 461.01171875 739 554.963867188 659 554.963867188 523.418945312 c 0
 554.963867188 322.1875 345.15234375 194 345.15234375 194 c 5
EndSplineSet
Validated: 1
EndChar

StartChar: NameMe.65537
Encoding: 65537 -1 78
Width: 579
Flags: W
HStem: -10.0664 174<84.2771 316.557> 297.992 149.941<145.29 316.829> 521.428 21G<54.5099 59.2695> 565.992 173<108.633 312.93>
VStem: 332.917 209<467.248 604.582> 340.917 219<188.942 279.999>
LayerCount: 2
Fore
SplineSet
50 197 m 1xf4
 50 197 126.85984585 163.93359375 233.916992188 163.93359375 c 4
 305.791015625 163.93359375 340.916992188 191.567382812 340.916992188 234.9921875 c 4xf4
 340.916992188 273.4921875 313.850585938 297.9921875 260.916992188 297.9921875 c 4
 188.724510347 297.9921875 145.2578125 288.43359375 145.2578125 288.43359375 c 1
 145.196289062 451.876953125 l 1
 145.196289062 451.876953125 171.407069927 447.93359375 230.916992188 447.93359375 c 0
 298.407324219 447.93359375 332.916992188 469.322265625 332.916992188 502.93359375 c 0
 332.916992188 541.469726562 300.417256863 565.9921875 233.916992188 565.9921875 c 0
 127.626219326 565.9921875 59.26953125 521.427734375 59.26953125 521.427734375 c 1
 18 694.840820312 l 1
 18 694.840820312 89.2591761628 738.9921875 256.916992188 738.9921875 c 0
 431.083764398 738.9921875 541.916992188 662.358782476 541.916992188 541.93359375 c 0xf8
 541.916992188 417.620329417 426.275390625 384.96875 426.275390625 384.96875 c 1
 426.275390625 384.96875 559.916992188 354.49609375 559.916992188 196.9921875 c 0
 559.916992188 70.4560546875 445.97265625 -10.06640625 266.916992188 -10.06640625 c 0
 85.2246769868 -10.06640625 8 24.0849609375 8 24.0849609375 c 1
 50 197 l 1xf4
EndSplineSet
Validated: 1
EndChar

StartChar: four
Encoding: 52 52 79
Width: 709
Flags: W
HStem: 0 21G<372 580.329> 154.68 183.28<252.72 679.76> 162.12 170.96<252.72 642.527>
LayerCount: 2
Fore
SplineSet
574.899414062 576.93359375 m 1x80
 580.329101562 0 l 1
 372 0 l 1
 378.169921875 576.93359375 l 1
 574.899414062 576.93359375 l 1x80
298.559570312 752.280273438 m 1
 470.759765625 644.400390625 l 1
 252.719726562 333.080078125 l 1xa0
 685.639648438 337.959960938 l 1
 679.759765625 154.6796875 l 1xc0
 50.759765625 162.120117188 l 1xa0
 13.5595703125 288.360351562 l 1
 298.559570312 752.280273438 l 1
EndSplineSet
Validated: 5
EndChar

StartChar: seven
Encoding: 55 55 80
Width: 568
Flags: W
HStem: 538.008 193<200 341.848>
LayerCount: 2
Fore
SplineSet
7 429.0078125 m 5
 37 731.0078125 l 1
 527.016601562 731.0078125 l 1
 577.016601562 603.0078125 l 1
 346 -16 l 5
 131 48 l 5
 341.84765625 538.0078125 l 1
 200 534.712890625 l 1
 186 411 l 5
 7 429.0078125 l 5
EndSplineSet
EndChar

StartChar: dollar
Encoding: 36 36 81
Width: 408
Flags: W
HStem: 0 21G<148 285> 514 21G<130.311 234.511> 719 20G<113 250>
LayerCount: 2
Fore
SplineSet
285 0 m 25
 148 0 l 25
 165 205 l 29
 266 205 l 29
 285 0 l 25
113 739 m 25
 250 739 l 25
 233 514 l 29
 132 514 l 29
 113 739 l 25
307.302734375 635.848632812 m 1
 331.232421875 493.830078125 l 1
 331.232421875 493.830078125 234.431640625 484.62109375 234.431640625 456.092773438 c 0
 234.431640625 441.572265625 253.3828125 435.52734375 297.732421875 414.959960938 c 0
 363.058661043 384.66454712 388.2890625 346.294921875 388.2890625 285.793945312 c 0
 388.2890625 97.013671875 73.0390625 77.0791015625 73.0390625 77.0791015625 c 1
 51.5693359375 226.671875 l 1
 51.5693359375 226.671875 182.4375 231.786132812 182.4375 277.923828125 c 0
 182.4375 296.712890625 162.719726562 306.098632812 122.036132812 321.897460938 c 0
 45.1147896275 351.768644088 20 390.168945312 20 446.14453125 c 0
 20 619.578125 307.302734375 635.848632812 307.302734375 635.848632812 c 1
EndSplineSet
Validated: 5
EndChar

StartChar: quotesingle
Encoding: 39 39 82
Width: 256
Flags: W
HStem: 465 300<67 183>
VStem: 14 228
LayerCount: 2
Fore
SplineSet
14 765 m 25
 242 765 l 25
 183 465 l 25
 67 465 l 25
 14 765 l 25
EndSplineSet
Validated: 1
EndChar

StartChar: quotedbl
Encoding: 34 34 83
Width: 462
VWidth: 1111
Flags: W
HStem: 453 315
LayerCount: 2
Fore
SplineSet
9 755 m 5
 201 768 l 5
 186 462 l 5
 71 453 l 5
 9 755 l 5
251 767 m 5
 447 751 l 5
 376 454 l 5
 254 460 l 5
 251 767 l 5
EndSplineSet
Validated: 1
EndChar

StartChar: plus
Encoding: 43 43 84
Width: 450
Flags: W
HStem: 160.5 137.5<222 306.5> 293 154<21 256.667>
VStem: 154.5 145<296.971 547.25>
LayerCount: 2
Fore
SplineSet
307.5 569.5 m 1xa0
 299.5 391.5 l 1
 306.5 158.5 l 1
 137.5 160.5 l 1
 154.5 392.5 l 1
 146.5 572.5 l 1
 307.5 569.5 l 1xa0
21 447 m 1x60
 223 443 l 5
 432 450 l 1
 430 281 l 1
 222 298 l 5xa0
 18 293 l 1
 21 447 l 1x60
EndSplineSet
Validated: 5
EndChar

StartChar: minus
Encoding: 8722 8722 85
Width: 450
Flags: W
HStem: 245 172<174.455 401> 256 157<49 271.545>
LayerCount: 2
Fore
SplineSet
49 413 m 5x40
 405 417 l 5
 401 245 l 5x80
 45 256 l 5
 49 413 l 5x40
EndSplineSet
Validated: 1
EndChar

StartChar: question
Encoding: 63 63 86
Width: 437
Flags: W
HStem: -10 220<75.35 216.65> 254.635 189.839<70.0198 196.976> 589 156.384<49.1254 138.402>
VStem: 36 220<29.35 170.65> 213 204<462.562 545.248>
LayerCount: 2
Fore
SplineSet
20 589 m 5xe8
 50.490234375 745.383789062 l 1
 301.833984375 713.731445312 417 638.8046875 417 506.93359375 c 0
 417 366 234.327148438 320 234.327148438 320 c 1
 221 245 l 1
 221 245 199 254.634765625 148 254.634765625 c 0
 97 254.634765625 70 243 70 243 c 1
 55.9052734375 449 l 5
 55.9052734375 449 78 444.473632812 122 444.473632812 c 4
 175 444.473632812 213 461 213 505 c 4
 213 553.075195312 169.16796875 571.017578125 20 589 c 5xe8
36 100 m 0xf0
 36 167.22265625 78.77734375 210 146 210 c 0
 213.22265625 210 256 167.22265625 256 100 c 0
 256 32.77734375 213.22265625 -10 146 -10 c 0
 78.77734375 -10 36 32.77734375 36 100 c 0xf0
EndSplineSet
Validated: 1
EndChar

StartChar: parenleft
Encoding: 40 40 87
Width: 361
Flags: W
VStem: 20 211.137<116.161 478.583>
LayerCount: 2
Fore
SplineSet
231.13671875 300.836914062 m 0
 231.13671875 21 360 -128.994140625 360 -128.994140625 c 5
 200 -198.994140625 l 1
 200 -198.994140625 20 -37 20 301.005859375 c 0
 20 613 200 791.001953125 200 791.001953125 c 1
 360 721.001953125 l 5
 360 721.001953125 231.13671875 577 231.13671875 300.836914062 c 0
EndSplineSet
Validated: 1
EndChar

StartChar: parenright
Encoding: 41 41 88
Width: 361
Flags: W
VStem: 129.863 211.137<113.424 475.847>
LayerCount: 2
Fore
SplineSet
129.86328125 291.170898438 m 4
 129.86328125 571.0078125 1 721.001953125 1 721.001953125 c 5
 161 791.001953125 l 5
 161 791.001953125 341 629.0078125 341 291.001953125 c 4
 341 -20.9921875 161 -198.994140625 161 -198.994140625 c 5
 1 -128.994140625 l 5
 1 -128.994140625 129.86328125 15.0078125 129.86328125 291.170898438 c 4
EndSplineSet
Validated: 1
EndChar

StartChar: bracketleft
Encoding: 91 91 89
Width: 394
Flags: W
HStem: -190 154<233.747 381.824> 626 165.011<230.672 372.395>
VStem: 30 203.747<-36 629>
LayerCount: 2
Fore
SplineSet
372.39453125 791.010742188 m 5
 378.665039062 626 l 1
 230.671875 629 l 1
 233.747070312 -36 l 1
 384.806640625 -32 l 1
 381.82421875 -190 l 1
 30 -190 l 1
 32.69140625 791.010742188 l 5
 372.39453125 791.010742188 l 5
EndSplineSet
Validated: 1
EndChar

StartChar: bracketright
Encoding: 93 93 90
Width: 394
Flags: W
HStem: -190 165.011<22.4121 164.135> 633.011 158<12.9824 161.06>
VStem: 164.135 197.98<-27.9893 637.011>
LayerCount: 2
Fore
SplineSet
22.412109375 -190 m 5
 16.1416015625 -24.9892578125 l 5
 164.134765625 -27.9892578125 l 5
 161.059570312 637.010742188 l 5
 10 633.010742188 l 5
 12.982421875 791.010742188 l 5
 364.806640625 791.010742188 l 5
 362.115234375 -190 l 5
 22.412109375 -190 l 5
EndSplineSet
Validated: 1
EndChar

StartChar: less
Encoding: 60 60 91
Width: 450
Flags: W
LayerCount: 2
Fore
SplineSet
289.37109375 341.5 m 5
 435.349609375 271 l 5
 375.349609375 122 l 5
 14.650390625 332 l 5
 375.349609375 561 l 5
 435.349609375 412 l 5
 289.37109375 341.5 l 5
EndSplineSet
Validated: 1
EndChar

StartChar: greater
Encoding: 62 62 92
Width: 450
Flags: W
LayerCount: 2
Fore
SplineSet
160.62890625 341.5 m 1
 14.650390625 412 l 1
 74.650390625 561 l 1
 435.349609375 351 l 1
 74.650390625 122 l 1
 14.650390625 271 l 1
 160.62890625 341.5 l 1
EndSplineSet
Validated: 1
EndChar

StartChar: asciicircum
Encoding: 94 94 93
Width: 392
Flags: W
HStem: 416 332
LayerCount: 2
Fore
SplineSet
194 748 m 25
 397 512 l 25
 269 416 l 25
 195 540 l 25
 119 422 l 25
 -5 496 l 25
 194 748 l 25
EndSplineSet
Validated: 1
EndChar

StartChar: asterisk
Encoding: 42 42 94
Width: 401
Flags: W
LayerCount: 2
Fore
SplineSet
135.857421875 765 m 17
 263.857421875 765 l 9
 255.416992188 633.537109375 l 25
 360.330078125 683.889648438 l 25
 400.1640625 566.8046875 l 25
 289.74609375 530.580078125 l 25
 372.087890625 430.75 l 25
 267.357421875 364.55078125 l 25
 201.891601562 482.959960938 l 25
 136.426757812 364.55078125 l 1
 31.6962890625 430.75 l 25
 114.038085938 530.580078125 l 25
 1 575.254882812 l 25
 46.8681640625 683.889648438 l 25
 148.368164062 633.537109375 l 25
 135.857421875 765 l 17
EndSplineSet
Validated: 1
EndChar

StartChar: sterling
Encoding: 163 163 95
Width: 576
Flags: W
HStem: 0 171.293<259.064 556.539> 245 172<161.273 426> 256 157<14 274.727>
LayerCount: 2
Fore
SplineSet
14 413 m 1xa0
 430 417 l 1
 426 245 l 1xc0
 10 256 l 1
 14 413 l 1xa0
259.064453125 171.29296875 m 5
 560.159179688 172.930664062 l 1
 556.5390625 0 l 1
 23.4296875 0 l 1
 44.9454523104 452.125433501 138.308892123 623.005046291 431.930664062 747.6640625 c 1
 528.798828125 596.354492188 l 5
 358.057748787 525.209540867 278.173342051 399.323518271 259.064453125 171.29296875 c 5
EndSplineSet
Validated: 5
EndChar

StartChar: braceleft
Encoding: 123 123 96
Width: 474
Flags: W
HStem: -199.681 152.12<224.025 443.197> 230.602 140.4<10.0365 148.283> 648.927 152.12<223.985 443.228>
VStem: 73.3398 210.227<-90.8716 50.7085 527.22 637.414> 152.296 200.451<131.033 224.787 374.036 463.442>
LayerCount: 2
Fore
SplineSet
296.986328125 801.046875 m 4xf0
 398.800574776 801.046875 458.4609375 773.2265625 458.4609375 773.2265625 c 5
 444.530273438 631.016601562 l 5
 444.530273438 631.016601562 409.850522253 648.926757812 360.157226562 648.926757812 c 4
 309.657157174 648.926757812 283.56640625 632.704188208 283.56640625 592 c 4xf0
 283.56640625 516.583704902 355.350585938 504.78646623 355.350585938 389.743164062 c 4
 355.350585938 320.680364452 289.905273438 296.681640625 289.905273438 296.681640625 c 5
 289.905273438 296.681640625 352.747070312 266.810162193 352.747070312 204.143554688 c 4xe8
 352.747070312 123.58226423 283.56640625 96.2242617724 283.56640625 11 c 4
 283.56640625 -31.3371495863 309.962522245 -47.560546875 360.157226562 -47.560546875 c 4
 417.304909495 -47.560546875 444.530273438 -29.650390625 444.530273438 -29.650390625 c 5
 458.4609375 -171.860351562 l 5
 458.4609375 -171.860351562 398.800574776 -199.680664062 296.986328125 -199.680664062 c 4
 153.484375 -199.680664062 73.33984375 -145.895507812 73.33984375 -39 c 4xf0
 73.33984375 63.978515625 152.295898438 111.669047538 152.295898438 188.765625 c 4
 152.295898438 218.299804688 133.784557308 230.6015625 103.743164062 230.6015625 c 4
 56.2837708175 230.6015625 10 228.721679688 10 228.721679688 c 1
 10 375 l 1
 10 375 60.0847774773 371.001953125 108.982421875 371.001953125 c 4
 134.420788466 371.001953125 152.295898438 379.53125 152.295898438 403.12109375 c 4xe8
 152.295898438 470.177232813 73.33984375 499.405606061 73.33984375 622 c 4
 73.33984375 733.947265625 153.484375 801.046875 296.986328125 801.046875 c 4xf0
EndSplineSet
Validated: 1
EndChar

StartChar: braceright
Encoding: 125 125 97
Width: 474
Flags: W
HStem: -199.681 152.12<30.772 250.015> 230.364 140.4<325.717 463.964> 648.927 152.12<30.8033 249.975>
VStem: 118.649 203.055<137.924 227.33 376.58 466.093> 190.434 210.227<-36.0474 74.1464 550.658 692.238>
LayerCount: 2
Fore
SplineSet
177.013671875 -199.680664062 m 0xe8
 75.1994252244 -199.680664062 15.5390625 -171.860351562 15.5390625 -171.860351562 c 1
 29.4697265625 -29.650390625 l 1
 29.4697265625 -29.650390625 64.1494777465 -47.560546875 113.842773438 -47.560546875 c 0
 164.342842826 -47.560546875 190.43359375 -31.3379772708 190.43359375 9.3662109375 c 0xe8
 190.43359375 84.7825060356 118.649414062 96.5797447079 118.649414062 211.623046875 c 0xf0
 118.649414062 280.685846486 184.094726562 304.684570312 184.094726562 304.684570312 c 1
 184.094726562 304.684570312 121.252929688 334.556048745 121.252929688 397.22265625 c 0
 121.252929688 477.783946708 190.43359375 505.141949165 190.43359375 590.366210938 c 0
 190.43359375 632.703360524 164.037477755 648.926757812 113.842773438 648.926757812 c 0
 56.6950905053 648.926757812 29.4697265625 631.016601562 29.4697265625 631.016601562 c 1
 15.5390625 773.2265625 l 1
 15.5390625 773.2265625 75.1994252244 801.046875 177.013671875 801.046875 c 0
 320.515625 801.046875 400.66015625 747.26171875 400.66015625 640.366210938 c 0xe8
 400.66015625 537.387695312 321.704101562 489.697163399 321.704101562 412.600585938 c 0
 321.704101562 383.06640625 340.215442692 370.764648438 370.256835938 370.764648438 c 0
 417.716229182 370.764648438 464 372.64453125 464 372.64453125 c 5
 464 226.366210938 l 5
 464 226.366210938 413.915222523 230.364257812 365.017578125 230.364257812 c 0
 339.579211534 230.364257812 321.704101562 221.834960938 321.704101562 198.245117188 c 0xf0
 321.704101562 131.188978125 400.66015625 101.960604877 400.66015625 -20.6337890625 c 0
 400.66015625 -132.581054688 320.515625 -199.680664062 177.013671875 -199.680664062 c 0xe8
EndSplineSet
Validated: 1
EndChar

StartChar: cent
Encoding: 162 162 98
Width: 401
Flags: W
HStem: 0 21G<188 325> 149.934 55.0664<205 306> 514 52.9336<203 304> 719 20G<184 321>
VStem: 20 179<307.137 406.015>
LayerCount: 2
Fore
SplineSet
325 0 m 1
 188 0 l 1
 205 205 l 5
 306 205 l 5
 325 0 l 1
184 739 m 1
 321 739 l 1
 304 514 l 5
 203 514 l 5
 184 739 l 1
20 359.93359375 m 4
 20 486.433681147 112.166566604 566.93359375 257 566.93359375 c 4
 354.483696794 566.93359375 395.916992188 520.782226562 395.916992188 520.782226562 c 5
 339.647460938 398.369140625 l 5
 339.647460938 398.369140625 313.561819439 422.93359375 273 422.93359375 c 4
 227.777500898 422.93359375 199 398.433946118 199 359.93359375 c 4
 199 317.155664062 222.683105469 289.93359375 269 289.93359375 c 4
 342.115137188 289.93359375 379.1484375 315.364257812 379.1484375 315.364257812 c 5
 411.146484375 182.31640625 l 5
 411.146484375 182.31640625 373.572391561 149.93359375 257 149.93359375 c 4
 112.166566604 149.93359375 20 231.599646935 20 359.93359375 c 4
EndSplineSet
Validated: 5
EndChar

StartChar: asciitilde
Encoding: 126 126 99
Width: 524
Flags: W
HStem: 216.96 285.04
LayerCount: 2
Fore
SplineSet
337.321289062 391.168945312 m 1
 431.98046875 484.280273438 l 1
 523.66015625 379 l 1
 342.280273438 216.959960938 l 1
 187.33984375 327.791015625 l 5
 92.6806640625 234.6796875 l 5
 1 339.959960938 l 1
 182.380859375 502 l 1
 337.321289062 391.168945312 l 1
EndSplineSet
Validated: 1
EndChar

StartChar: numbersign
Encoding: 35 35 100
Width: 664
Flags: W
HStem: -10 21G<74 213.639 314 453.639> 170 152<233.818 608> 181 137<24 394.182> 400 152<273.455 640> 411 137<68 430.545>
LayerCount: 2
Fore
SplineSet
24 318 m 1xa0
 612 322 l 1
 608 170 l 1xc0
 20 181 l 1
 24 318 l 1xa0
68 548 m 1x88
 644 552 l 1
 640 400 l 1x90
 64 411 l 1
 68 548 l 1x88
314 10 m 5
 457 741.0078125 l 5
 583 721.0078125 l 5
 450 -10 l 5
 314 10 l 5
74 10 m 5
 217 741.0078125 l 5
 343 721.0078125 l 5
 210 -10 l 5
 74 10 l 5
EndSplineSet
Validated: 5
EndChar

StartChar: NameMe.65538
Encoding: 65538 -1 101
Width: 581
Flags: W
HStem: -10.0664 174<103.48 311.019> 317.992 161.008<224.415 404.235> 550 181.008<239 365>
VStem: 340.917 219<190.952 292.134>
LayerCount: 2
Fore
SplineSet
529.016601562 549.0078125 m 5
 239 550 l 29
 224 471 l 21
 224 471 248.642857143 479 316 479 c 4
 492.46964774 479 559.916992188 386.635747331 559.916992188 246.9921875 c 4
 559.916992188 68.1744133844 445.97265625 -10.06640625 266.916992188 -10.06640625 c 4
 85.2246769868 -10.06640625 8 44.0849609375 8 44.0849609375 c 5
 50 207 l 5
 50 207 126.85984585 163.93359375 233.916992188 163.93359375 c 4
 305.791015625 163.93359375 340.916992188 195.456256431 340.916992188 244.9921875 c 4
 340.916992188 289.603298611 303.700683594 317.9921875 230.916992188 317.9921875 c 4
 164.966339317 317.9921875 125.2578125 288.43359375 125.2578125 288.43359375 c 5
 19 392 l 5
 80 731.0078125 l 5
 365 731.0078125 l 5
 362 798.0078125 l 5
 515.016601562 800.0078125 l 5
 529.016601562 549.0078125 l 5
EndSplineSet
Validated: 1
EndChar

StartChar: yen
Encoding: 165 165 102
Width: 753
Flags: W
HStem: 0 21G<303.83 526.159> 106.188 86.0049<144.276 673.012> 255.702 92.7246<144.276 685.238>
VStem: 307.623 215.111<0 260.155>
LayerCount: 2
Fore
SplineSet
144.276367188 192.192382812 m 5
 676.125 194.537109375 l 5
 673.01171875 100.173828125 l 5
 141.1640625 106.1875 l 5
 144.276367188 192.192382812 l 5
144.276367188 348.426757812 m 5
 688.3515625 350.612304688 l 5
 685.23828125 249.690429688 l 5
 141.1640625 255.702148438 l 5
 144.276367188 348.426757812 l 5
EndSplineSet
Refer: 69 89 N 1 0 0 1 0 0 2
Validated: 5
EndChar

StartChar: brokenbar
Encoding: 166 166 103
Width: 256
Flags: W
VStem: 32.3164 191.975<-170 239.44 355.92 788.992>
LayerCount: 2
Fore
SplineSet
223.022460938 355.919921875 m 1
 33.7568359375 355.919921875 l 1
 36.169921875 788.9921875 l 1
 220.899414062 788.9921875 l 1
 223.022460938 355.919921875 l 1
224.291015625 239.440429688 m 1
 226.329101562 -170 l 1
 30 -170 l 1
 32.31640625 239.440429688 l 1
 224.291015625 239.440429688 l 1
EndSplineSet
Validated: 1
EndChar

StartChar: section
Encoding: 167 167 104
Width: 599
Flags: W
LayerCount: 2
Fore
SplineSet
69.890625 445.674804688 m 1
 119.677734375 364 203.677734375 337 326.131835938 293.893554688 c 0
 451.97265625 249.594726562 504.102539062 190.8046875 504.102539062 107.5 c 0
 504.102539062 -103.239257812 175.088867188 -109.163085938 175.088867188 -109.163085938 c 1
 146.552734375 46.9765625 l 1
 146.552734375 46.9765625 280.00390625 57.232421875 280.00390625 99.279296875 c 0
 280.00390625 119.564453125 268.21875 138.001953125 198.58984375 170.873046875 c 0
 118.647460938 208.61328125 20 271 20 342.936523438 c 0
 20 400.051757812 69.890625 445.674804688 69.890625 445.674804688 c 1
529.46484375 225.325195312 m 1
 479.677734375 307 395.677734375 334 273.223632812 377.106445312 c 0
 147.3828125 421.405273438 95.2529296875 480.1953125 95.2529296875 563.5 c 0
 95.2529296875 774.239257812 424.266601562 780.163085938 424.266601562 780.163085938 c 1
 452.802734375 624.0234375 l 1
 452.802734375 624.0234375 319.3515625 613.767578125 319.3515625 571.720703125 c 0
 319.3515625 551.435546875 331.13671875 532.998046875 400.765625 500.126953125 c 0
 480.708007812 462.38671875 579.35546875 400 579.35546875 328.063476562 c 0
 579.35546875 270.948242188 529.46484375 225.325195312 529.46484375 225.325195312 c 1
EndSplineSet
Validated: 1
EndChar

StartChar: currency
Encoding: 164 164 105
Width: 465
Flags: W
HStem: 153.532 138.966<204.894 260.367> 421.688 138.967<204.894 260.367>
VStem: 25.2803 145.989<307.293 407.666> 293.991 145.988<307.293 407.666>
LayerCount: 2
Fore
SplineSet
261.239257812 213.436523438 m 1
 379.889648438 246.325195312 l 1
 464.259765625 114.765625 l 1
 315.580078125 66.1455078125 l 1
 261.239257812 213.436523438 l 1
204.020507812 213.436523438 m 1
 149.6796875 66.1455078125 l 1
 1 114.765625 l 1
 85.3701171875 246.325195312 l 1
 204.020507812 213.436523438 l 1
261.239257812 497.74609375 m 1
 315.580078125 645.036132812 l 1
 464.259765625 596.416015625 l 1
 379.889648438 464.856445312 l 1
 261.239257812 497.74609375 l 1
204.020507812 497.74609375 m 1
 85.3701171875 464.856445312 l 1
 1 596.416015625 l 1
 149.6796875 645.036132812 l 1
 204.020507812 497.74609375 l 1
171.26953125 355.671875 m 0
 171.26953125 314.975585938 197.703125 292.498046875 232.629882812 292.498046875 c 0
 267.559570312 292.498046875 293.991210938 314.975585938 293.991210938 355.671875 c 0
 293.991210938 397.412109375 267.559570312 421.688476562 232.629882812 421.688476562 c 0
 197.703125 421.688476562 171.26953125 397.412109375 171.26953125 355.671875 c 0
25.2802734375 355.590820312 m 0
 25.2802734375 485.24609375 114.739257812 560.655273438 232.629882812 560.655273438 c 0
 350.520507812 560.655273438 439.979492188 485.24609375 439.979492188 355.590820312 c 0
 439.979492188 225.424804688 350.520507812 153.532226562 232.629882812 153.532226562 c 0
 114.739257812 153.532226562 25.2802734375 225.424804688 25.2802734375 355.590820312 c 0
EndSplineSet
Validated: 5
EndChar

StartChar: dieresis
Encoding: 168 168 106
Width: 450
Flags: W
HStem: 559.008 180<57.3847 182.615 267.385 392.615>
VStem: 30 180<586.392 711.623> 240 180<586.392 711.623>
LayerCount: 2
Fore
SplineSet
240 649.0078125 m 4
 240 704.008167614 274.999644886 739.0078125 330 739.0078125 c 4
 385.000355114 739.0078125 420 704.008167614 420 649.0078125 c 4
 420 594.007457386 385.000355114 559.0078125 330 559.0078125 c 4
 274.999644886 559.0078125 240 594.007457386 240 649.0078125 c 4
30 649.0078125 m 0
 30 704.008167614 64.9996448864 739.0078125 120 739.0078125 c 0
 175.000355114 739.0078125 210 704.008167614 210 649.0078125 c 0
 210 594.007457386 175.000355114 559.0078125 120 559.0078125 c 0
 64.9996448864 559.0078125 30 594.007457386 30 649.0078125 c 0
EndSplineSet
Validated: 1
EndChar

StartChar: guillemotleft
Encoding: 171 171 107
Width: 672
Flags: W
LayerCount: 2
Fore
SplineSet
515.720703125 349.5 m 5
 671.69921875 199 l 5
 571.69921875 90 l 5
 311 340 l 5
 571.69921875 599 l 5
 671.69921875 510 l 5
 515.720703125 349.5 l 5
215.720703125 341.5 m 1
 411.69921875 151 l 1
 291.69921875 42 l 1
 -9 332 l 1
 291.69921875 631 l 1
 411.69921875 542 l 1
 215.720703125 341.5 l 1
EndSplineSet
Validated: 1
EndChar

StartChar: guillemotright
Encoding: 187 187 108
Width: 672
Flags: W
LayerCount: 2
Fore
SplineSet
155.978515625 323.5 m 5
 0 474 l 5
 100 583 l 5
 360.69921875 333 l 5
 100 74 l 5
 0 163 l 5
 155.978515625 323.5 l 5
455.978515625 331.5 m 1
 260 522 l 1
 380 631 l 1
 680.69921875 341 l 1
 380 42 l 1
 260 131 l 1
 455.978515625 331.5 l 1
EndSplineSet
Validated: 1
EndChar

StartChar: logicalnot
Encoding: 172 172 109
Width: 497
Flags: W
HStem: 248.966 168.034<14 316> 256 157<14 314.513>
VStem: 312 171<128.824 248.966>
LayerCount: 2
Fore
SplineSet
14 413 m 1x60
 480 417 l 1
 483 125 l 1
 312 128.82421875 l 5
 316 248.965820312 l 1xa0
 10 256 l 1
 14 413 l 1x60
EndSplineSet
Validated: 1
EndChar

StartChar: macron
Encoding: 175 175 111
Width: 330
Flags: W
HStem: 609.008 122<121.273 316> 620.008 107<14 204.727>
VStem: 10 310
LayerCount: 2
Fore
SplineSet
14 727.0078125 m 1x60
 320 731.0078125 l 1
 316 609.0078125 l 1xa0
 10 620.0078125 l 1
 14 727.0078125 l 1x60
EndSplineSet
Validated: 1
EndChar

StartChar: mu
Encoding: 181 181 112
Width: 663
Flags: W
HStem: -9.93164 159<232.003 340.823> 0 150.927<557.849 649.38> 492.002 5G<42.8408 237.17 367.81 555.325>
VStem: 25 192<-45.7069 498.01> 368 187.17<213.068 497.002>
LayerCount: 2
Fore
SplineSet
217 235.068359375 m 0x38
 217 56.272465495 256 -164 256 -164 c 1
 62 -190 l 1
 62 -190 25 62.2344942517 25 208.068359375 c 0
 25 357.54296875 42.8408203125 512.001953125 42.8408203125 512.001953125 c 1
 237.169921875 497.001953125 l 1
 237.169921875 497.001953125 217 353.235351562 217 235.068359375 c 0x38
266 -9.931640625 m 0xb8
 170.45323989 -9.931640625 128.894957983 122 117 213.068359375 c 1
 195 250.068359375 l 1
 202 182 230.48828125 149.068359375 286 149.068359375 c 0
 341.51171875 149.068359375 370 182 377 250.068359375 c 1
 425 213.068359375 l 1
 401 90 381.035500919 -9.931640625 266 -9.931640625 c 0xb8
363.270507812 0 m 1x78
 368 497.001953125 l 1
 555.169921875 497.001953125 l 1
 557.848632812 150.926757812 l 1
 653 152.930664062 l 1
 649.379882812 0 l 1
 363.270507812 0 l 1x78
EndSplineSet
Validated: 5
EndChar

StartChar: acute
Encoding: 180 180 113
Width: 230
Flags: W
HStem: 516.72 223.784
VStem: 1 228.518
LayerCount: 2
Fore
SplineSet
137.840820312 740.50390625 m 25
 229.517578125 636.18359375 l 25
 60.4375 516.719726562 l 25
 1 582.465820312 l 25
 137.840820312 740.50390625 l 25
EndSplineSet
Validated: 1
EndChar

StartChar: plusminus
Encoding: 177 177 114
Width: 450
Flags: W
HStem: 84 156<223 430> 96 141<21 258.333> 200.5 32.5<137.5 306.5> 333 154<21 256.667>
VStem: 154.5 145<336.971 587.25>
LayerCount: 2
Fore
SplineSet
21 487 m 1x18
 223 483 l 1
 432 490 l 1
 430 321 l 1
 222 338 l 1
 18 333 l 1
 21 487 l 1x18
307.5 609.5 m 1
 299.5 431.5 l 1
 306.5 198.5 l 1
 137.5 200.5 l 1x38
 154.5 432.5 l 1
 146.5 612.5 l 1
 307.5 609.5 l 1
21 237 m 1x58
 223 233 l 1x38
 432 240 l 1
 430 84 l 1x98
 18 96 l 1
 21 237 l 1x58
EndSplineSet
Validated: 5
EndChar

StartChar: copyright
Encoding: 169 169 116
Width: 795
Flags: W
HStem: -10.0664 100.877<283.004 518.138> 139.745 123.601<361.832 523.249> 466.181 123<365.885 508.762> 640.64 98.2939<286.076 514.996>
VStem: 20 108<243.344 482.978> 195.229 135.6<295.425 430.36> 674.117 100.883<243.344 482.978>
LayerCount: 2
Fore
SplineSet
195.229492188 362.9453125 m 0
 195.229492188 501.200195312 280.862304688 589.180664062 415.4296875 589.180664062 c 0
 520.234375 589.180664062 564.779296875 543.489257812 564.779296875 543.489257812 c 1
 528.017578125 431.041992188 l 5
 528.017578125 431.041992188 489.586914062 466.180664062 429.829101562 466.180664062 c 4
 369.329101562 466.180664062 330.829101562 426.034179688 330.829101562 362.9453125 c 4
 330.829101562 302.078125 362.903320312 263.345703125 425.62890625 263.345703125 c 4
 505.342773438 263.345703125 545.71875 298.403320312 545.71875 298.403320312 c 5
 573.916992188 177.174804688 l 1
 573.916992188 177.174804688 533.822265625 139.745117188 409.4296875 139.745117188 c 0
 278.529296875 139.745117188 195.229492188 226.544921875 195.229492188 362.9453125 c 0
20 361.93359375 m 0
 20 592.322641811 166.610951939 738.93359375 397 738.93359375 c 0
 628.000476926 738.93359375 775 592.322641811 775 361.93359375 c 0
 775 134.599173678 628.000476926 -10.06640625 397 -10.06640625 c 0
 166.610951939 -10.06640625 20 134.599173678 20 361.93359375 c 0
128 361.93359375 m 0
 128 196.246930926 232.9990625 90.810546875 398 90.810546875 c 0
 566.738726451 90.810546875 674.1171875 196.246930926 674.1171875 361.93359375 c 0
 674.1171875 532.255308483 566.738726451 640.639648438 398 640.639648438 c 0
 232.9990625 640.639648438 128 532.255308483 128 361.93359375 c 0
EndSplineSet
EndChar

StartChar: registered
Encoding: 174 174 117
Width: 795
Flags: W
HStem: -10.0664 100.877<283.004 518.138> 466.193 117.601<384.609 471.119> 466.193 33.7549<288.355 383.956> 640.64 98.2939<286.076 514.996>
VStem: 20 108<243.344 482.978> 262.918 121.038<140.398 287.059 377.925 499.948> 482.504 125.4<373.93 451.454> 674.117 100.883<243.344 482.978>
LayerCount: 2
Fore
SplineSet
385.956054688 140.3984375 m 1xbf
 259.216796875 140.3984375 l 1
 262.91796875 499.948242188 l 1
 383.956054688 499.948242188 l 1
 385.956054688 140.3984375 l 1xbf
359.072265625 377.924804688 m 1
 359.072265625 377.924804688 378.651367188 365.358398438 423.104492188 365.358398438 c 0
 462.407226562 365.358398438 482.50390625 383.55859375 482.50390625 412.158203125 c 0
 482.50390625 445.180664062 457.686523438 466.193359375 406.904296875 466.193359375 c 0
 288.35546875 466.193359375 212.116210938 423.254882812 212.116210938 423.254882812 c 1
 187.354492188 539.302734375 l 1
 187.354492188 539.302734375 256.953125 583.793945312 420.704101562 583.793945312 c 0xdf
 535.104492188 583.793945312 607.904296875 521.247070312 607.904296875 422.958984375 c 0
 607.904296875 322.450195312 515.3984375 297.022460938 515.3984375 297.022460938 c 1
 654.416015625 183.198242188 l 5
 580.016601562 78.1982421875 l 5
 329.708984375 287.05859375 l 1
 359.072265625 377.924804688 l 1
20 361.93359375 m 0
 20 592.322641811 166.610951939 738.93359375 397 738.93359375 c 0
 628.000476926 738.93359375 775 592.322641811 775 361.93359375 c 0
 775 134.599173678 628.000476926 -10.06640625 397 -10.06640625 c 0
 166.610951939 -10.06640625 20 134.599173678 20 361.93359375 c 0
128 361.93359375 m 0
 128 196.246930926 232.9990625 90.810546875 398 90.810546875 c 0
 566.738726451 90.810546875 674.1171875 196.246930926 674.1171875 361.93359375 c 0
 674.1171875 532.255308483 566.738726451 640.639648438 398 640.639648438 c 0
 232.9990625 640.639648438 128 532.255308483 128 361.93359375 c 0
EndSplineSet
EndChar

StartChar: degree
Encoding: 176 176 118
Width: 429
Flags: W
HStem: 358.113 135.303<176.091 253.178> 603.593 135.399<175.772 253.502>
VStem: 20 146.384<501.768 596.134> 263.184 146.416<502.1 595.813>
LayerCount: 2
Fore
SplineSet
166.383789062 549.416015625 m 4
 166.383789062 515.194335938 185.086914062 493.416015625 214.479492188 493.416015625 c 4
 244.243164062 493.416015625 263.18359375 515.194335938 263.18359375 549.416015625 c 4
 263.18359375 582.524414062 244.243164062 603.592773438 214.479492188 603.592773438 c 4
 185.086914062 603.592773438 166.383789062 582.524414062 166.383789062 549.416015625 c 4
20 549.512695312 m 4
 20 665.305664062 95.630859375 738.9921875 214.479492188 738.9921875 c 4
 333.719726562 738.9921875 409.599609375 665.305664062 409.599609375 549.512695312 c 4
 409.599609375 432.545898438 333.719726562 358.11328125 214.479492188 358.11328125 c 4
 95.630859375 358.11328125 20 432.545898438 20 549.512695312 c 4
EndSplineSet
Validated: 1
EndChar

StartChar: AE
Encoding: 198 198 119
Width: 960
Flags: W
HStem: 0 171.293<679.064 946.539> 149 157<262 459.091> 278 172<667.455 894> 558.08 172.931<153.62 390 676.104 938.729>
VStem: 542 134.104<310 446>
LayerCount: 2
Fore
SplineSet
262 306 m 1x58
 578 310 l 1
 574 138 l 1
 258 149 l 1
 262 306 l 1x58
938.729492188 731.010742188 m 1
 944.61328125 554 l 1
 676.103515625 558 l 1
 679.017578125 171.48046875 l 1
 679.064453125 171.29296875 l 1
 950.159179688 172.930664062 l 1
 946.5390625 0 l 1
 463.4296875 0 l 1x98
 468.151367188 560.083984375 l 1
 150 558.080078125 l 1
 153.620117188 731.010742188 l 1
 938.729492188 731.010742188 l 1
542 446 m 1
 898 450 l 1
 894 278 l 1x38
 538 289 l 1
 542 446 l 1
522 555 m 1
 159.819335938 -15 l 1
 -9.7265625 89 l 1
 390 643 l 1
 522 555 l 1
EndSplineSet
EndChar

StartChar: ae
Encoding: 230 230 120
Width: 878
Flags: W
HStem: -23.9004 145.801<640.839 769.819> -10.0664 124<205.931 313.186> 204 102<508 694> 220.934 116<146.834 316.774> 366.934 140<574.346 674.665> 501 20G<184.438 191>
VStem: 18 174<127.254 208.891> 368 92<155.049 222.608>
LayerCount: 2
Fore
SplineSet
327 169.93359375 m 4x53
 327 200.600585938 300.944335938 220.93359375 260 220.93359375 c 4
 218.444335938 220.93359375 192 200.600585938 192 169.93359375 c 4
 192 134.989257812 218.444335938 113.93359375 260 113.93359375 c 4
 300.944335938 113.93359375 327 134.989257812 327 169.93359375 c 4x53
547 251.93359375 m 0
 547 151 624.819335938 136.854492188 791.2890625 121.900390625 c 1
 769.819335938 -23.900390625 l 1
 541.979492188 -22.2919921875 368 49 368 259 c 0
 368 399.989257812 455.833007812 506.93359375 619 506.93359375 c 0
 818.92578125 506.93359375 860.619140625 375 860.619140625 257.659179688 c 0
 860.619140625 219.858398438 855 192 855 192 c 1
 508 204 l 1
 493 306 l 1
 694 302 l 1
 694 302 693 366.93359375 626 366.93359375 c 0xab
 563.610351562 366.93359375 547 311.211914062 547 251.93359375 c 0
460 133.93359375 m 0
 460 56.7197265625 395.760742188 -10.06640625 226 -10.06640625 c 0
 98.888671875 -10.06640625 18 58.7666015625 18 166.93359375 c 0
 18 270.823242188 91.1103515625 336.93359375 206 336.93359375 c 0x53
 361.22265625 336.93359375 460 257.989257812 460 133.93359375 c 0
471.848632812 150.926757812 m 1
 330.270507812 151 l 1
 330.270507812 151 335 244.29296875 335 311 c 0
 335 376.921875 149 393 149 393 c 1
 191 521 l 1x07
 191 521 469.169921875 506.93359375 469.169921875 337.001953125 c 0
 469.169921875 266.752929688 471.848632812 150.926757812 471.848632812 150.926757812 c 1
EndSplineSet
EndChar

StartChar: cedilla
Encoding: 184 184 121
Width: 227
Flags: W
HStem: -248 81<12 96.7557> -99 119<34.6667 100.633>
VStem: 103 104<-157.727 -107.868>
LayerCount: 2
Fore
SplineSet
37 20 m 1
 13 -52 l 1
 19 -99 l 1
 81.8386975593 -100.313660655 103 -109.772727273 103 -132 c 0
 103 -157.041407437 74.7818181818 -166.522727273 6 -167 c 5
 12 -248 l 5
 140.680203046 -242 207 -216.730463477 207 -136 c 0
 207 -55.1298701299 110 -49 110 -49 c 1
 130 14 l 1
 37 20 l 1
EndSplineSet
EndChar

StartChar: paragraph
Encoding: 182 182 124
Width: 758
Flags: W
HStem: 536 168<422.6 493.238>
VStem: 20 402.6<333.54 535.454> 245 177.6<-173.994 206> 500 176<-173.994 246.723> 500 164.261<110.847 531.564>
LayerCount: 2
Fore
SplineSet
738 679.9921875 m 1xc0
 725 525.9921875 l 1
 725 525.9921875 698.730016744 531 664.260742188 531.564453125 c 5xc8
 676 -173.994140625 l 5
 500 -173.994140625 l 1x90
 500 536 l 1
 422.599609375 536 l 1
 422.599609375 -173.994140625 l 1
 245 -173.994140625 l 1xa8
 249 206 l 1
 249 206 20 210.017094017 20 441 c 0
 20 630 146.896551724 704 388 704 c 0
 634.540880503 704 738 679.9921875 738 679.9921875 c 1xc0
EndSplineSet
EndChar

StartChar: Eth
Encoding: 208 208 125
Width: 773
Flags: W
HStem: -10.0664 197<330.852 466.41> 265 172<164.909 436> 276 157<14 281.091> 539.992 59.2578<170.25 325.67> 539.992 199<332.557 461.153>
VStem: 123.94 201.729<188.847 599.25> 538.917 215<262.359 463.054>
LayerCount: 2
Fore
SplineSet
14 433 m 5xa6
 440 437 l 5
 436 265 l 5xc6
 10 276 l 5
 14 433 l 5xa6
EndSplineSet
Refer: 57 68 N 1 0 0 1 0 0 2
EndChar

StartChar: eth
Encoding: 240 240 126
Width: 565
Flags: W
HStem: -10.0664 164.925<220.912 331.139> 342.009 164.925<222.105 334.168> 718.992 20G<443.209 520.916>
VStem: 20 174.375<184.303 314.108> 360.625 184.375<184.291 462.745>
LayerCount: 2
Fore
SplineSet
172.700195312 644.66796875 m 1
 516 738.9921875 l 1
 545.834960938 617.62109375 l 5
 198.723632812 537.803710938 l 5
 172.700195312 644.66796875 l 1
194.375 249.858398438 m 0
 194.375 191.802734375 226.516601562 154.858398438 277.025390625 154.858398438 c 0
 328.114257812 154.858398438 360.625 191.802734375 360.625 249.858398438 c 0
 360.625 306.172851562 328.114257812 342.008789062 277.025390625 342.008789062 c 0
 226.516601562 342.008789062 194.375 306.172851562 194.375 249.858398438 c 0
20 249.93359375 m 0
 20 406.989257812 106.333239604 506.93359375 242 506.93359375 c 0
 313.16785012 506.93359375 343.90234375 479.057617188 343.90234375 479.057617188 c 1
 288.985108527 656.480760497 189 731 189 731 c 1
 385 787 l 1
 385 787 545 609.959487241 545 312 c 0
 545 76.5609773511 440.778115916 -10.06640625 277 -10.06640625 c 0
 119.944335938 -10.06640625 20 91.0439453125 20 249.93359375 c 0
EndSplineSet
EndChar
